<svg width="31" height="26" viewBox="0 0 31 26" fill="none" xmlns="http://www.w3.org/2000/svg">
<path d="M11.9949 0.402137C8.79992 0.5927 5.7302 2.01201 3.46158 4.59732C1.19296 7.18262 0.185313 10.4107 0.375876 13.6057C0.566438 16.8007 1.98575 19.8705 4.57106 22.1391C7.15637 24.4077 10.3844 25.4154 13.5795 25.2248C16.7437 25.0036 19.8442 23.6149 22.1128 21.0296L30.3291 11.7347L28.1436 9.68039C27.623 10.5724 26.795 11.4036 26.366 11.9575L19.9892 19.1595C18.2418 21.16 15.8166 22.2401 13.3896 22.3985C10.9319 22.5261 8.411 21.7937 6.44115 20.0154C4.44063 18.268 3.36054 15.8428 3.2022 13.4159C3.07452 10.9581 3.80702 8.43726 5.58523 6.46741C7.33267 4.46689 9.75783 3.3868 12.1848 3.22846C15.5948 3.00675 17.6866 4.29313 20.0874 6.43921C17.637 10.3768 11.5296 13.922 6.30332 12.3345C9.48986 7.78099 13.666 6.54387 15.2337 6.8788C9.85365 5.26084 5.37978 11.4145 4.55302 12.8602C12.8603 18.8047 20.7118 11.5383 23.989 6.21655C20.2339 2.78266 17.5555 0.0533499 11.9949 0.402137Z" fill="#6E9D3E"/>
</svg>

