<svg width="50" height="50" viewBox="0 0 50 50" fill="none" xmlns="http://www.w3.org/2000/svg">
<path d="M37.5 16.667C40.9518 16.667 43.75 13.8688 43.75 10.417C43.75 6.96521 40.9518 4.16699 37.5 4.16699C34.0482 4.16699 31.25 6.96521 31.25 10.417C31.25 13.8688 34.0482 16.667 37.5 16.667Z" stroke="white" stroke-width="2" stroke-linecap="round" stroke-linejoin="round"/>
<path d="M12.5 31.25C15.9518 31.25 18.75 28.4518 18.75 25C18.75 21.5482 15.9518 18.75 12.5 18.75C9.04822 18.75 6.25 21.5482 6.25 25C6.25 28.4518 9.04822 31.25 12.5 31.25Z" stroke="white" stroke-width="2" stroke-linecap="round" stroke-linejoin="round"/>
<path d="M37.5 45.833C40.9518 45.833 43.75 43.0348 43.75 39.583C43.75 36.1312 40.9518 33.333 37.5 33.333C34.0482 33.333 31.25 36.1312 31.25 39.583C31.25 43.0348 34.0482 45.833 37.5 45.833Z" stroke="white" stroke-width="2" stroke-linecap="round" stroke-linejoin="round"/>
<path d="M17.8955 28.1455L32.1247 36.4372" stroke="white" stroke-width="2" stroke-linecap="round" stroke-linejoin="round"/>
<path d="M32.1038 13.5625L17.8955 21.8542" stroke="white" stroke-width="2" stroke-linecap="round" stroke-linejoin="round"/>
</svg>