<svg width="224" height="119" viewBox="0 0 224 119" fill="none" xmlns="http://www.w3.org/2000/svg">
<g clip-path="url(#clip0_126_156)">
<path d="M0.0258789 67.9943H17.0499L26.5099 21.032H9.48365L0.0258789 67.9943ZM10.4216 15.4308H27.5169L30.3264 1.37991H13.2378L10.4216 15.4308ZM23.6714 81.2092H40.6976L51.1001 30.4712H63.8686L65.7513 21.032H53.2278L53.7023 18.9085C54.4108 14.906 55.8301 10.4122 62.2132 10.4122C66.0008 10.4122 69.5455 10.6479 73.0902 12.3L74.984 2.38943C71.0335 0.998289 66.8769 0.279695 62.6878 0.263672C48.9723 0.263672 39.5168 8.28862 35.9676 21.032H30.0568L28.1653 30.4712H34.0761L23.6714 81.2092Z" fill="#EA1D2C"/>
<path d="M77.584 68.9396C97.6826 68.9396 111.634 50.7661 111.634 35.8992C111.634 24.8079 101.466 20.0872 91.5356 20.0872C69.5387 20.0872 57.4854 39.686 57.4854 53.1276C57.4854 64.2189 67.89 68.9396 77.584 68.9396ZM131.501 68.9396C151.6 68.9396 165.551 50.7661 165.551 35.8992C165.551 24.8079 155.147 20.0872 145.214 20.0872C123.224 20.0872 111.166 39.6748 111.166 53.1276C111.166 64.2189 121.807 68.9396 131.501 68.9396ZM193.216 67.9945H210.004L223.715 1.21777H206.691L202.669 21.0411L195.576 20.334C179.024 20.334 163.891 41.5716 163.891 56.6764C163.891 62.8113 167.902 68.9485 174.768 68.9485C184.462 68.9485 191.32 64.2278 194.152 59.5071H195.096L193.216 67.9945ZM140.718 103.158C127.504 114.086 110.531 119.422 93.4271 118.025C70.9624 116.609 54.8831 99.3806 52.0469 81.2094H52.9915C58.1939 92.5497 70.7262 103.158 86.0971 104.808C101.693 106.696 120.383 99.6185 130.55 89.9414L119.2 81.2094H153.487L145.912 117.554L140.945 103.394L140.718 103.158Z" fill="#EA1D2C"/>
</g>
<defs>
<clipPath id="clip0_126_156">
<rect width="223.689" height="117.979" fill="white" transform="translate(0.0258789 0.263672)"/>
</clipPath>
</defs>
</svg>
