<svg width="26" height="26" viewBox="0 0 26 26" fill="none" xmlns="http://www.w3.org/2000/svg">
<path d="M18.2103 2.97559H7.89172C5.04232 2.97559 2.73242 5.28548 2.73242 8.13489V18.4535C2.73242 21.3029 5.04232 23.6128 7.89172 23.6128H18.2103C21.0597 23.6128 23.3696 21.3029 23.3696 18.4535V8.13489C23.3696 5.28548 21.0597 2.97559 18.2103 2.97559Z" stroke="#006838" stroke-width="1.10065" stroke-linecap="round" stroke-linejoin="round"/>
<path d="M17.177 12.6441C17.3044 13.5028 17.1577 14.3799 16.7579 15.1505C16.358 15.9211 15.7254 16.546 14.9499 16.9363C14.1744 17.3266 13.2956 17.4625 12.4385 17.3245C11.5814 17.1866 10.7896 16.7819 10.1757 16.1681C9.56182 15.5542 9.15714 14.7624 9.01922 13.9052C8.8813 13.0481 9.01716 12.1693 9.40747 11.3939C9.79778 10.6184 10.4227 9.98575 11.1933 9.5859C11.9639 9.18606 12.8409 9.03938 13.6997 9.16672C14.5756 9.29661 15.3866 9.7048 16.0128 10.331C16.639 10.9572 17.0471 11.7681 17.177 12.6441Z" stroke="#006838" stroke-width="1.10065" stroke-linecap="round" stroke-linejoin="round"/>
<path d="M18.7246 7.61914H18.735" stroke="#006838" stroke-width="1.10065" stroke-linecap="round" stroke-linejoin="round"/>
</svg>