<svg width="25" height="26" viewBox="0 0 25 26" fill="none" xmlns="http://www.w3.org/2000/svg">
<path d="M16.7449 9.16699C18.3869 9.16699 19.9616 9.81927 21.1227 10.9803C22.2838 12.1414 22.936 13.7162 22.936 15.3582V22.5812H18.8086V15.3582C18.8086 14.8108 18.5912 14.2859 18.2041 13.8989C17.8171 13.5119 17.2922 13.2944 16.7449 13.2944C16.1975 13.2944 15.6726 13.5119 15.2856 13.8989C14.8986 14.2859 14.6812 14.8108 14.6812 15.3582V22.5812H10.5537V15.3582C10.5537 13.7162 11.206 12.1414 12.3671 10.9803C13.5281 9.81927 15.1029 9.16699 16.7449 9.16699V9.16699Z" stroke="#006838" stroke-width="1.10065" stroke-linecap="round" stroke-linejoin="round"/>
<path d="M6.42627 10.1992H2.29883V22.5815H6.42627V10.1992Z" stroke="#006838" stroke-width="1.10065" stroke-linecap="round" stroke-linejoin="round"/>
<path d="M4.36255 7.10303C5.50231 7.10303 6.42627 6.17907 6.42627 5.03931C6.42627 3.89954 5.50231 2.97559 4.36255 2.97559C3.22279 2.97559 2.29883 3.89954 2.29883 5.03931C2.29883 6.17907 3.22279 7.10303 4.36255 7.10303Z" stroke="#006838" stroke-width="1.10065" stroke-linecap="round" stroke-linejoin="round"/>
</svg>