<svg width="409" height="426" viewBox="0 0 409 426" fill="none" xmlns="http://www.w3.org/2000/svg">
<g clip-path="url(#clip0_177_83)">
<path d="M20.5217 158.588L19.1328 158.561L19.4934 157.356L19.3532 156.803L19.1863 156.476L18.3516 156.01L18.2581 155.71L18.4384 154.944L17.9242 153.645L17.1964 153.218L13.4571 152.385L8.55589 152.259L8.73618 151.886L10.3988 150.38L10.9931 149.56L11.1868 148.761L11.0399 147.941L10.5858 147.335L10.0316 147.042L8.90979 145.077L8.39563 144.783L7.79467 144.657L7.04012 143.904L6.4258 142.318L5.09033 141.299L4.43595 138.887L3.85501 137.794L2.59967 137.075L2.54625 136.295L3.08712 136.362L3.36757 136.016L3.41431 135.569L3.28076 135.289L1.86516 134.67L1.62477 134.23L0.175781 132.971L0.202491 132.724L0.616488 132.691L0.950357 131.812L0.943679 130.939L2.95357 130.679L3.28744 130.419L3.14054 129.52L2.35928 128.474L14.3452 133.457L30.1438 137.228L38.2502 139.32L55.9052 148.761L74.9423 156.843L76.9255 157.682L76.7252 158.002L75.6769 158.442L74.2813 159.501L72.3716 161.36L71.2698 161.933L70.8291 161.813L69.8074 161.933L69.7741 162.306L68.492 163.172L67.1031 163.832L66.1416 165.051L65.8478 165.837L65.4404 166.023L64.6592 165.524L64.1517 165.437L62.5692 165.471L62.1151 165.644L61.6944 165.944L61.4541 166.517L59.8248 168.835L57.3074 169.668L56.7465 170.128L55.4511 170.467L54.7633 170.487L54.8167 169.082L53.9086 169.215L51.5381 168.702L48.0392 168.389L44.6404 168.642L44.1997 168.255L42.6839 168.142L40.3068 169.361L38.4839 169.774L37.3621 169.328L36.4272 168.369L35.3322 169.142L35.3589 157.449L35.3923 156.716L35.7061 156.243L35.7528 154.677L35.5792 154.091L36.2269 153.305L36.5474 152.545L35.7729 152.678L33.7897 154.404L32.7213 155.077L31.3458 156.663L30.0437 157.109L29.6097 157.829L28.401 158.488L20.5217 158.588Z" fill="#8DC41E" fill-opacity="0.67"/>
<path d="M375.384 153.61L375.25 153.124L374.302 152.604L374.002 152.664L373.321 152.471L372.96 151.538L373.841 150.825L374.269 150.099L375.718 149.593L377.307 147.401L377.367 146.941L377.915 146.541L378.582 147.354L379.697 147.554L380.419 147.474L382.121 148.82L383.39 150.232L384.579 150.932L385.854 151.252L387.523 150.819L389.62 151.012L390.401 150.939L391.643 150.232L392.418 150.266L393.626 149.526L395.082 148.001L395.162 147.701L396.197 146.875L397.533 146.715L399.028 147.281L400.738 146.422L401.719 146.295L403.001 146.835L404.938 147.014L405.118 147.154L403.262 150.459L400.224 153.877L397.833 156.262L395.803 159.313L393.58 161.232L392.912 162.585L392.031 163.777L391.63 162.905L389.233 161.419L388.926 161.399L387.817 160.872L386.642 159.906L385.774 158.274L382.155 156.229L379.697 155.596L375.384 153.61Z" fill="#FF9900"/>
<path d="M110.9 31.6807L111.381 32.2003L111.882 32.4269L112.289 32.4335L113.043 32.1537L113.464 32.227L113.504 32.8666L114.312 33.6461L114.96 33.8926L115.547 33.7527L116.456 33.826L117.758 34.4589L118.085 34.8987L117.477 37.1106L117.003 38.11L118.826 40.6017L119.934 43.7731L120.061 45.2788L120.642 46.025L120.676 46.3248L119.594 47.2976L119.834 48.3569L120.275 49.4096L119.761 51.435L119.38 52.0746L119.574 55.3925L120.161 56.8383L120.976 57.3979L121.363 57.9975L122.118 60.8824L122.078 61.2688L121.317 62.1483L120.088 61.9284L119.995 62.6879L123.34 65.6328L123.687 65.6594L124.996 66.5322L125.984 67.6315L126.679 68.9907L127.033 69.0373L127.927 68.7575L129.503 69.4504L129.209 68.0446L129.71 66.5189L129.877 65.3663L129.63 64.167L130.178 62.1882L130.859 61.3488L131.713 60.8891L133.109 60.416L133.476 59.8231L134.545 59.7831L136.434 60.4027L137.683 61.7618L138.297 63.4341L139.513 63.5874L140.347 63.2809L141.289 62.3415L142.644 61.975L142.925 61.7152L142.938 61.3621L142.177 60.4227L142.023 59.9363L142.097 59.4966L142.865 57.7377L142.911 56.9848L144.02 54.9661L145.576 52.7941L145.556 52.3411L157.902 52.3877L158.169 55.6257L157.882 56.5917L158.002 58.1041L158.162 58.5572L159.298 59.1235L159.418 59.3967L159.184 59.8564L159.151 61.2622L160.373 62.588L160.613 62.7146L161.08 62.5947L162.309 63.4141L162.676 64.6334L162.703 65.253L162.903 65.5528L166.002 68.0646L169.06 69.7568L169.481 70.3565L170.382 71.0827L171.637 71.5291L173.22 72.4019L174.729 72.8349L175.637 72.9348L176.519 73.4812L176.572 73.8876L177.42 74.7804L179.223 75.7398L179.957 77.1855L181.206 77.7119L181.774 77.3054L182.695 77.0723L182.822 77.3921L182.735 77.9117L183.944 79.0244L163.978 121.824L163.458 122.697L162.489 123.45L162.102 124.096L162.082 124.849L162.63 126.401L162.883 126.781L163.598 127.168L164.653 128.207L165.08 129.046L165.18 130.352L165.561 130.732L164.773 131.532L164.639 131.938L164.599 132.444L164.826 133.004L164.646 133.677L163.845 134.889L163.271 135.316L162.99 135.882L163.057 136.448L163.498 137.361L163.805 138.654L162.883 141.465L162.095 144.943L161.287 145.429L129.336 145.643L129.363 145.176L129.123 144.923L128.194 144.737L126.912 145.456L126.552 146.615L126.098 146.742L123.934 145.756L123.48 143.837L123.066 143.704L122.412 143.791L122.105 143.651L121.27 141.472L119.574 140.819L118.686 139.973L118.152 138.7L117.851 138.374L116.415 137.621L109.211 137.661L108.289 139.367L107.141 139.7L107.201 140.479L107.027 140.626L105.371 140.979L104.576 142.038L104.543 142.485L105.144 142.951L105.258 143.251L105.017 143.93L104.476 144.697L103.101 145.503L103.027 146.709L103.188 147.681L100.603 147.375L99.1812 147.628L98.3799 148.341L97.1846 148.274L96.6237 147.908L96.3166 147.895L95.148 148.734L94.7941 149.294L94.9678 150.46L93.2717 152.565L92.8176 152.618L92.3636 152.265L91.9362 150.759L91.6825 150.7L90.4538 151.379L89.5858 152.185L88.671 152.445L88.1568 152.358L87.4357 152.692L87.1619 153.045L87.0751 153.524L86.2605 154.051L86.0134 154.064L84.4709 152.512L83.9901 152.265L82.0737 152.485L79.4295 152.312L79.5363 153.171L79.4362 153.544L78.4012 154.75L77.1191 155.137L74.9423 156.842L55.9051 148.761L38.2501 139.32L30.1438 137.228L14.3451 133.457L2.35924 128.473L2.3125 128.04L2.77992 126.095L3.59456 125.162L6.87982 122.85L8.38891 122.69L8.70275 122.491L9.35713 121.451L9.41055 120.765L8.24869 117.773L8.50243 116.981L9.29036 115.522L10.1451 114.642L10.7594 113.809L11.0398 113.156L11.2402 111.997L11.0465 111.118L11.4939 109.758L11.7009 108.219L12.1883 107.72L14.6323 106.634L16.0946 105.814L16.8625 105.121L17.1563 104.189L17.6771 103.942L18.6186 103.869L19.7204 103.249L22.0842 101.43L23.7001 101.144L24.7084 101.337L27.5062 100.524L28.5078 100.011L29.7231 99.7714L31.9467 100.025L32.8147 98.9652L33.2354 97.9992L33.9633 97.5928L35.3922 97.726L35.8196 98.0858L36.701 97.9259L37.4355 97.4328L38.5773 97.5128L38.7843 97.8659L38.771 98.6521L39.846 99.5116L41.7357 99.5649L42.123 99.2983L42.4302 98.7787L42.3567 98.5188L43.138 95.2409L47.6118 70.4764L48.3864 68.5309L47.7253 65.2263L47.8055 65.0531L46.9374 64.3536L45.9492 62.5214L45.9224 62.1949L46.3565 61.2688L46.0092 60.0829L45.7622 59.8164L44.627 59.4233L42.6038 57.8576L41.3084 56.3386L41.4419 48.67L44.0394 48.4968L45.208 47.7173L47.545 47.1043L49.3346 48.2769L50.1492 48.3502L50.9972 48.0637L50.67 46.9378L50.8704 45.7918L49.9556 44.3927L49.575 44.0329L48.8071 43.6332L47.7988 43.9863L45.9358 43.5799L43.552 43.6398L43.5119 37.044L44.1529 37.0706L45.0343 36.6842L46.5568 36.2845L48.4532 36.8641L61.1602 36.9041L60.853 36.4643L60.3255 36.3711L60.0718 35.5716L60.7061 34.2857L61.661 34.5522L62.0683 35.5649L62.6493 36.4444L63.09 36.6775L63.6442 36.6842L64.7192 36.2778L66.0147 34.8853L66.2283 34.3257L67.0697 33.4995L68.7724 32.5734L69.6338 32.8799L70.415 34.5988L71.4968 35.9247L71.9909 36.7908L72.4316 37.9767L72.5852 39.0094L72.258 41.4279L72.3915 42.6005L74.5283 42.1008L80.0772 46.8045L80.6047 46.9911L82.2741 47.131L83.8099 46.4647L84.945 45.3321L86.3539 44.5593L87.8163 44.486L88.1902 44.6792L88.7044 45.3987L88.691 46.045L87.9498 47.1776L88.1969 47.8306L88.5842 48.0104L89.4723 47.5307L89.8462 46.9245L89.9998 46.065L90.6675 45.2922L90.9814 45.1389L91.6491 45.2588L92.0163 45.1389L92.2901 44.6992L92.5973 43.1601L92.9378 42.9136L93.9461 42.6738L95.9026 41.4945L96.5503 41.861L97.1713 41.6677L98.2397 40.9748L98.9208 39.9022L100.33 39.096L101.685 39.4625L103.261 38.3631L103.628 37.8168L103.922 36.0446L103.902 35.1851L104.416 34.5722L105.104 34.2924L106.266 34.279L107.161 34.0192L108.536 32.9532L109.177 32.7067L110.7 32.5068L110.9 31.6807Z" fill="#8DC41E" fill-opacity="0.67"/>
<path d="M230.532 66.5986L229.904 66.5586L229.39 66.7851L228.522 66.8651L226.659 66.412L225.69 65.7258L225.403 64.7264L224.155 63.8003L224.081 62.9342L224.221 62.4745L224.014 61.4218L223.794 61.1087L223.16 60.9821L222.886 60.3558L222.939 58.7368L220.983 56.5515L220.462 56.7914L219.914 56.6648L218.913 54.3462L219 53.2936L218.606 52.0876L218.192 51.7145L217.744 50.7085L217.617 49.3027L217.905 47.2107L217.791 46.9908L216.075 46.5045L214.726 44.9987L214.219 43.1133L214.346 42.6336L214.8 42.4803L214.472 41.6941L214.018 41.7141L212.122 39.9419L211.494 40.0352L211.241 40.315L210.353 40.4083L209.792 40.2284L209.257 39.5755L208.496 39.0158L207.702 38.9359L207.374 38.0831L206.927 37.5501L205.638 36.8505L204.777 36.524L202.513 36.2775L201.792 36.4707L201.011 36.4574L200.804 36.0977L200.644 35.1382L200.811 32.1135L201.225 31.2474L200.977 29.715L200.563 29.3352L200.797 29.1953L201.458 29.3952L201.452 29.9348L201.258 30.0548L201.485 30.701L202.467 30.6611L203.014 30.8143L203.248 31.4139L203.809 31.887L205.311 32.4066L207.508 32.9063L209.351 31.7204L209.585 31.214L210.74 30.4345L211.294 30.2413L211.755 30.8676L213.564 31.4939L214.285 31.4139L215.434 30.741L215.514 30.4612L215.728 30.4812L216.703 31.3473L216.569 31.9269L218.152 31.8137L218.492 32.1468L219.127 32.26L219.541 32.2534L220.148 31.9336L221.263 30.9342L222.452 30.2013L223.62 28.669L223.867 28.0027L223.734 27.6429L225.824 23.3123L225.897 22.0997L226.639 21.2336L227.126 21.107L229.53 17.2494L229.683 16.4833L230.244 15.6838L231.44 14.6511L231.86 13.5451L233.269 12.7856L233.583 12.1726L234.278 11.7862L234.651 12.7589L235.239 13.665L234.124 10.467L234.077 9.60756L234.197 9.3877L236.448 11L237.209 11.8062L237.817 12.619L238.164 13.4118L238.184 14.4645L238.478 14.6711L238.691 14.3513L238.945 14.2846L239.085 14.5511L239.225 19.8078L239.666 22.3862L241.476 26.417L243.252 32.3733L245.469 35.7046L246.143 35.9377L248.327 35.8845L250.183 36.5107L251.044 37.077L251.559 38.8426L251.452 41.0612L250.59 41.7008L249.435 41.9873L249.181 42.2072L250.377 42.1072L251.071 41.8274L251.258 41.9806L251.338 42.3737L251.225 42.8601L247.866 45.5651L247.085 46.9642L245.649 47.9036L244.354 50.382L242.411 52.7139L241.943 53.0204L241.315 52.9604L240.347 53.3069L238.958 55.2923L238.064 55.3389L237.563 55.9386L236.581 57.0579L235.934 58.5369L235.186 59.7828L234.625 60.2159L232.615 62.5145L232.374 64.1135L232.488 65.3127L231.186 66.5186L230.532 66.5986ZM246.13 35.2915L245.829 35.0716L245.095 33.8324L245.142 33.2461L245.295 32.9729L246.404 32.6731L246.691 32.933L247.245 34.4454L246.584 35.1782L246.13 35.2915ZM247.793 47.0241L247.525 46.8576L247.472 46.3845L248.213 45.6517L248.801 45.5517L249.635 45.7116L249.943 45.6383L250.236 45.2119L250.27 45.605L249.622 46.5644L248.961 46.8976L247.793 47.0241ZM250.09 45.112L249.569 44.9588V44.5857L250.049 43.8928L250.884 43.8261L251.004 44.0593L250.938 44.3991L250.09 45.112ZM245.288 32.8397L244.781 32.5066L244.955 31.9536L245.542 31.8403L246.117 32.0535L246.123 32.5399L245.288 32.8397Z" fill="#8DC41E" fill-opacity="0.67"/>
<path d="M352.407 243.574L352.167 243.021L352.621 242.121L352.614 241.768L352.26 241.075L349.503 239.043L349.403 238.704L349.549 237.698L349.169 236.878L348.735 237.038L348.601 237.338L348.374 237.458L348.227 237.291L348.581 234.36L349.129 232.161L349.676 231.575L351.326 231.735L352.007 231.262V230.982L351.633 230.302L351.74 228.537L355.052 225.725L356.033 223.673L355.753 222.894L355.232 222.214L354.638 222.174L354.15 221.921L352.26 220.275L350.845 220.288L349.383 219.889L347.867 219.169L346.044 218.796L344.722 218.703L343.84 219.362L342.859 219.696L341.116 219.396L340.735 219.536L340.442 216.897L336.088 212.767L335.834 212.647L332.903 213.466L331.881 212.64L331.541 212.78L330.92 212.633L329.224 211.82L327.775 210.741L327.12 210.861L324.216 208.443L323.481 208.083L321.658 207.583L320.476 207.75L319.221 208.349L318.68 209.095L318.253 209.215L314.694 208.236L314.286 207.91L314.113 206.91L314.206 206.317L315.068 204.492L314.493 204.185L312.971 203.839L311.515 203.812L310.714 203.479L309.519 203.426L306.961 204.478L304.117 206.497L303.689 207.237L301.439 208.483L300.09 208.749L299.456 209.535L298.247 210.568L297.292 210.914L296.625 210.814L295.389 212.533L294.695 213.046L293.273 212.793L292.792 212.88L292.331 213.546L291.436 214.159L291.169 213.999L292.124 211.714L291.784 210.108L292.772 208.796L292.939 208.283L292.785 207.437L292.338 206.291L292.405 205.844L292.879 204.898L292.845 204.592L290.702 202.846L289.573 200.541L289.159 198.196L289.193 197.163L289.994 194.611L291.056 193.925L291.209 193.672L291.249 193.046L290.161 192.486L290.087 192.266L290.408 190.587L291.363 189.881L291.35 189.634L289.533 187.995L289.507 187.376L290.415 185.79L290.388 185.077L290.274 184.797L289.3 184.471L288.672 184.038L288.438 183.198L288.478 181.253L288.605 180.687L289.907 179.574L290.668 179.294L291.309 178.814L291.116 178.395L290.729 178.048L290.114 177.855L289.426 177.975L289.193 177.755L289.133 177.422L289.413 176.782L290.775 176.236L291.149 175.936L291.122 175.43L289.867 174.777L287.477 174.331L286.235 173.025L286.081 172.412L286.415 171.639L287.089 171.153L288.104 168.834L288.705 168.428L289.38 168.248L289.613 167.995L288.752 166.795L288.879 166.549L291.022 164.803L293.573 163.457L293.947 163.144L294.094 162.491L294.555 162.058L296.11 162.045L297.072 162.938L297.513 163.631L297.867 165.103L299.042 166.762L301.833 168.001L303.035 167.655L304.444 167.775L304.664 167.635L305.165 166.669L305.926 166.422L306.374 165.843L307.155 165.25L308.631 164.75L309.519 164.863L310.507 165.216L311.408 164.936L313.392 163.324L315.361 159.96L315.842 159.387L316.002 158.774L316.203 157.068L316.123 156.295L314.627 153.344L314.66 152.724L316.824 151.625L318.126 151.611L319.127 151.918L319.401 152.538L319.615 152.657L321.03 152.371L321.959 152.011L322.847 152.264L323.989 152.924L323.902 153.357L324.029 153.55L324.576 153.737L326.579 153.663L327.561 153.237L328.696 153.17L329.244 152.358L330.252 151.465L332.075 151.238L332.589 150.998L333.13 150.346L334.579 150.352L334.993 150.772L335.2 150.805L336.442 149.599L336.375 148L337.704 147.747L338.231 147.867L338.932 147.427L339.934 145.888L340.241 145.122L340.836 145.389L341.61 145.209L343.079 145.402L344.962 146.328L345.256 146.668L345.216 148.487L345.697 149.779L347.172 150.386L347.353 151.718L346.738 152.837L347.96 153.25L348.601 153.104L349.149 152.491L351.065 151.905L351.579 149.519L351.913 148.94L352.414 148.833L352.935 149.186L353.356 149.22L354.951 148.54L355.686 147.714L355.8 147.321L355.633 146.415L355.826 146.248L357.322 145.948L357.836 144.582L358.938 144.289L360.627 143.317L361.021 143.25L362.016 143.623L362.57 144.582L363.479 145.122L365.054 145.642L367.051 145.908L368.106 146.675L368.466 147.774L368.727 147.954L369.014 147.854L369.208 146.688L369.495 146.395L370.163 146.388L370.463 146.601L370.476 147.021L370.062 147.607L370.363 148.16L370.697 148.407L372.099 148.98L372.112 149.606L372.927 151.638L373.288 152.571L373.969 152.764L374.269 152.704L375.224 153.23L375.358 153.71L374.91 154.483L375.05 155.909L375.905 157.574L377.234 158.874L377.735 159.64L377.681 161.718L377.241 162.798L377.18 163.384L377.688 165.216L377.488 165.603L377.027 165.969L375.324 166.635L374.57 166.136L373.428 166.129L373.214 166.329L372.82 167.382L372.834 167.895L373.468 168.961L374.202 169.4L374.55 170.393L375.504 171.399L375.605 171.659L375.518 172.605L375.291 172.865L375.371 173.145L375.765 173.491L377.054 174.104L377.374 174.577L377.735 174.804L378.77 175.23L380.699 174.644L381.127 174.63L381.367 174.904L378.643 180.787L376.085 184.244L375.398 185.797L372.039 189.621L370.403 190.46L369.822 190.454L370.022 189.501L370.269 189.401L370.363 188.668L370.062 187.382L368.814 187.216L368.527 186.35L368.073 185.85L367.826 186.25L367.518 187.802L367.184 188.382L366.817 188.635L366.443 188.442L366.116 187.282L366.19 187.069L366.397 186.983L366.376 186.723L365.796 187.582L366.417 188.708L366.724 188.861L366.971 188.762L367.739 188.935L367.432 190.141L366.624 190.907L366.457 192.119L365.622 192.766L365.388 193.212L365.255 193.772L365.375 194.338L364.473 194.078L364.333 194.338L364.093 196.017L364.333 195.537L364.834 195.677L364.994 196.037L364.841 196.31L364.881 196.723L365.081 196.923L365.301 197.589L364.607 199.262L364.988 201.554L364.62 201.88L364.24 201.733L364.146 202.486L364.54 202.793L365.348 201.647L365.034 200.174L365.582 199.768L365.749 200.128L365.709 201.3L365.068 203.039L364.574 206.657L364.233 207.863L364.367 209.509L364.887 211.407L365.014 214.432L365.595 218.703L366.256 220.981L364.781 225.419L363.879 229.849L363.565 230.522L363.458 232.428L362.751 234.906L362.691 236.458L362.951 239.403L363.545 240.542L362.05 242.528L360.841 242.974L360.213 243.401L358.397 245.992L358.016 247.352L352.614 243.927L352.407 243.574ZM367.285 191.606L367.131 190.807L367.625 190.534L368.333 189.841L368.44 189.414L368.193 188.928L368.7 189.021L369.248 189.721L369.214 190.074L367.285 191.606ZM365.595 196.17L365.175 196.15L365.181 195.704L365.355 195.464L364.821 195.317L364.54 195.051L364.627 194.338L365.876 194.238L365.983 194.371L366.056 195.124L365.595 196.17Z" fill="#FF9900"/>
<path d="M383.316 104.675L380.051 105.734L378.308 107.074L376.104 111.531L375.543 112.277L374.963 112.657L374.529 113.769L374.629 114.262L373.694 115.888L372.719 116.894L372.338 117.627L371.651 117.8L371.13 117.46L370.789 117.507L370.228 118.093L369.287 119.592L369.06 120.905L369.487 121.018L369.928 120.765L369.874 121.125L369.313 121.891L368.626 123.89L368.973 124.762L368.532 125.635L367.804 126.055L367.691 126.308L367.611 126.928L367.771 127.201L368.158 127.394L368.392 127.874L368.379 128.98L369.207 129.573L369.667 129.626L369.894 130.419L368.819 132.744L368.025 133.49L368.138 133.657L367.077 133.983L366.362 134.536L365.334 136.062L364.232 136.095L363.811 135.003L363.29 134.623L362.382 134.303L361.708 133.59L361.401 132.931L360.179 132.378L358.276 131.112L356.219 130.832L355.358 130.899L353.929 131.432L352.84 131.558L352.246 131.398L348.954 131.265L348.994 130.386L348.54 129.933L348.487 129.286L349.248 127.214L350.25 125.715L350.256 125.256L349.742 124.483L348.033 124.17L347.158 123.736L346.484 121.958L345.782 118.493L345.275 116.781L345.435 116.481L344.807 111.044L344.734 110.791L344.12 110.332L344.654 109.945L345.048 108.892L344.647 106.9L343.979 105.561L344.3 104.495L343.772 101.917L344.267 101.011L344.28 100.504L343.372 99.445L343.078 98.2924L340.975 94.015L339.773 90.8704L339.579 90.0109L339.699 89.0382L340.754 87.7257L341.482 86.4931L341.556 85.9601L341.682 85.8668L341.656 85.4537L341.389 85.014L341.823 84.4743L346.323 84.3278L348.253 84.0413L349.635 83.6016L354.576 84.1279L355.992 84.8741L357.288 85.8735L360.039 87.3259L361.014 87.6723L364.232 89.6711L365.04 89.8043L366.522 91.3301L368.519 92.7359L370.235 93.2155L371.864 95.1543L372.679 95.5607L374.655 98.0992L377.433 100.151L378.408 101.484L379.103 102.143L380.104 102.69L380.872 102.71L382.455 103.323L382.982 103.769L383.316 104.675Z" fill="#FF9900"/>
<path d="M278.429 222.613L268.62 222.6L268.272 220.428L268.887 219.209L269.141 216.724L277.12 216.73L278.342 218.049L278.382 219.522L277.988 220.315L277.848 221.94L278.429 222.613Z" fill="#FFD233"/>
<path d="M335.133 274.249L334.939 274.156L335.233 272.597L335.614 271.731L335.22 269.652L335.327 269.372L336.475 268L339.914 268.02L340.281 267.807L340.929 265.648L341.67 264.802L342.258 263.276L342.418 262.13L342.592 261.837L343.42 261.264L344.562 259.872L344.922 257.893L344.728 256.274L343.88 254.402L343.146 253.555L342.799 253.495L342.498 253.689L341.991 253.502L341.664 253.029L341.951 252.663L342.939 252.603L343.473 252.836L344.121 252.856L344.755 252.696L344.969 252.416L344.855 251.27L343.981 251.037L343.84 250.764L344.041 249.738L344.061 248.459L343.714 248.019L342.825 247.573L342.625 247.106L343.406 245.82L344.855 244.948L345.062 244.934L345.763 245.427L346.518 245.501L346.531 244.961L345.416 243.448L346.311 243.535L347.767 243.342L348.328 242.935L349.049 242.722L350.104 242.669L351.8 243.209L352.407 243.575L352.608 243.928L358.016 247.353L357.395 249.585L357.188 251.49L357.269 253.882L357.749 257.979L357.542 259.625L356.547 261.744L354.711 262.67L354.344 263.07L353.229 265.288L352.574 267.82L352.06 268.799L351.506 268.346L350.918 268.26L350.725 269.112L351.626 269.459L350.331 272.284L348.027 274.842L347.867 274.662L346.625 275.102L346.091 275.921L346.051 276.848L345.77 277.68L344.708 279.026L344.515 279.779L343.433 279.073L341.437 279.319L338.539 278.646L336.869 277.894L336.422 274.756L335.133 274.249Z" fill="#CD0000"/>
<path d="M278.428 222.614L277.847 221.941L277.987 220.315L278.381 219.523L278.341 218.05L277.119 216.731L269.14 216.724L268.886 219.209L268.272 220.429L268.619 222.601L278.428 222.614L278.074 223.627L278.281 224.673L277.827 225.732L277.133 226.565L276.859 227.544L277.427 228.35L277.994 228.577L278.942 229.263L280.044 232.301V232.701L278.495 234.507L276.331 236.512L276.044 237.938L276.772 238.677L277.373 238.364L278.428 238.744L278.742 239.15L278.862 239.817L278.749 240.29L278.261 240.889L277.921 242.148L278.715 244.454L276.652 245.826L275.877 245.959L275.303 246.559L274.983 247.305L271.717 249.131L271.25 248.618L268.345 247.379L267.978 247.698L267.591 247.758L266.422 247.765L265.434 247.578L262.856 247.685L261.514 247.092L258.757 248.851L256.813 250.796H256.593L255.718 249.85L254.703 249.65L252.573 250.743L250.096 250.33L248.44 250.97L246.951 251.329L246.009 252.728L245.201 254.367L245.242 255.034L244.681 255.9L244.133 256.086L243.572 255.98L243.272 256.073L242.644 256.566L241.549 257.965L241.168 259.231L241.542 259.638L241.536 259.864L241.295 260.017L240.721 259.711L240.561 259.411L238.785 257.919L236.681 257.512L235.599 256.479L234.331 256.193L233.336 256.166L231.099 255.274L230.645 254.707L228.595 253.668L228.147 253.261L227.186 252.788L226.425 252.675L224.622 251.556L222.766 251.662L220.228 251.196L220.141 250.976L220.315 250.417L220.696 249.637L221.57 248.465L221.517 248.185L220.014 247.585L219.253 248.031L218.813 247.905L218.626 247.632L218.472 246.892L218.646 245.173L218.519 243.994L217.884 242.528L217.764 240.243L216.823 238.784L216.716 238.311L216.983 236.039L218.686 233.474L218.939 231.535L219.407 231.022L220.756 230.462L222.038 229.283L222.872 227.937L223.093 226.638L223.427 225.965L224.281 225.272L224.829 224.32L224.882 223.294L226.051 222.647L226.986 220.902L228.755 220.815L230.571 220.242L230.785 220.056L232.107 217.264L232.581 216.624L233.009 213.893L233.262 213.4L234.544 212.107L235.646 211.434L236.361 211.261L237.182 211.714L237.99 211.228L238.918 210.275L239.479 208.323L240.26 206.411L240.254 205.878L239.933 205.118L240.32 203.293L241.389 201.234L241.309 197.783L242.117 197.263L242.804 195.511L244.14 193.399L244.4 192.686L244.293 190.874L244.527 190.274L245.175 189.701L245.355 188.948L245.302 188.529L245.529 188.229L245.662 186.976L246.103 186.157L247.312 184.764L247.685 184.564L247.665 185.704L246.851 186.956L246.504 188.515L248.106 188.782L249.575 189.468L252.199 189.735L254.263 190.874L256.98 191.827L257.401 191.673L258.489 187.716L259.471 186.123L260.259 185.477L261.027 186.35L261.721 187.603L262.463 190.074L262.87 192.14L263.631 192.173L264.132 191.673L264.332 191.007L264.706 190.647L266.549 190.874L269.574 190.521L269.721 191.014L269.347 192.053L271.437 193.032L273.674 193.486L274.135 193.432L274.475 191.234L274.842 191.254L275.851 192.999L276.158 193.159L277.346 192.559L279.029 191.174L282.054 190.507H283.089L284.798 189.775L285.96 188.882L289.539 187.936L291.356 189.575L291.369 189.828L290.414 190.534L290.093 192.213L290.16 192.433L291.249 192.993L291.209 193.619L291.055 193.872L289.993 194.558L289.199 197.11L289.165 198.143L289.579 200.488L290.714 202.793L292.858 204.539L292.891 204.852L292.411 205.798L292.344 206.244L292.791 207.39L292.945 208.243L292.778 208.756L291.79 210.069L291.122 210.741L288.965 210.515L288.364 209.342L286.748 208.356L285.967 209.349L286.354 211.861L285.974 212.22L285.706 212.307L283.85 211.548L283.069 211.701L282.822 211.887L282.341 214.006L282.822 214.073L283.149 214.846L282.768 215.472L282.281 215.938L282.308 217.204L282.588 217.61L282.942 217.737L283.403 220.575L283.049 220.928L280.805 221.528L279.276 222.534L278.428 222.614Z" fill="#FFD42A"/>
<path d="M306.38 86.0666L306.353 86.2864L304.991 87.7189L304.704 87.8321L304.677 88.7915L305.993 87.6589L306.447 86.8527L307.862 85.8001L308.457 85.0405L309.145 80.8232L309.912 80.3568L310.654 80.2769L311.769 79.6639L312.203 79.5773L312.51 79.6572L312.563 80.7432L312.43 81.043L311.482 82.2889L309.338 83.4549L309.318 83.9346L309.806 84.0145L310.106 83.4748L310.874 83.2683L311.021 83.8213L310.627 84.1611L310.794 84.361L313.605 81.0497L314.179 81.2696L315.902 80.6499L318.6 80.9364L318.293 79.3308L318.7 79.1775L320.316 79.2308L321.504 79.484L323.261 80.1836L323.955 80.2569L325.391 81.1763L326.325 81.1963L327.167 82.0624L328.429 82.9419L330.098 83.3283L330.873 83.2017L331.247 83.708L331.474 83.7413L332.535 83.6814L334.178 84.1211L334.352 83.5215L333.904 83.2084L335.019 82.9552L335.4 83.0285L335.34 83.3083L335.033 84.261L335.186 84.7407L335.607 85.1005L335.353 86.1199L334.158 87.6323L331.4 90.2773L329.183 90.5837L328.649 90.4771L326.699 92.7424L326.726 93.9416L326.138 95.1609L324.876 96.3934L324.329 97.7126L323.902 97.8259L323.387 98.5254L323.628 99.8046L324.449 100.358L324.703 101.21L324.516 102.183L323.755 104.095L324.81 105.967L325.177 107.953L325.103 109.572L324.963 109.938L322.226 112.883L322.112 114.535L322.192 115.941L322.533 117.474L323.721 118.833L324.796 119.439L324.91 119.772L324.997 120.332L324.736 121.798L324.543 122.091L324.462 122.897L324.129 123.87L323.321 124.742L321.791 124.936L321.357 124.749L320.803 124.776L319.181 125.349L318.166 125.422L316.496 124.209L315.822 124.069L314.847 124.196L314.173 124.596L313.425 124.769L313.271 124.569L312.71 124.729L312.376 124.876L311.108 126.148L311.114 126.455L310.694 127.034L309.352 128.367L307.789 128.973L305.873 130.679L304.985 131.032L304.283 131.058L303.148 132.078L302.427 132.318L300.684 132.531L298.868 133.037L297.446 134.336L296.791 136.315L296.531 138.294L296.11 139.84L295.142 141.665L294.942 141.812L294.715 142.358L294.628 143.371L293.827 145.023L292.691 145.956L292.204 147.288L292.678 148.581L292.992 150.699L294.147 152.738L294.12 153.085L293.613 154.017L293.526 158.255L292.758 159.887L292.585 160.593L292.551 161.872L291.697 161.433L291.289 160.886L290.742 160.587L290.081 160.393L288.892 160.527L288.418 160.407L287.517 159.074L286.855 157.169L285.433 156.089L285.34 154.99L286.435 153.784L286.381 153.431L283.791 152.132L283.377 151.432L283.336 150.326L282.836 149.267L282.208 148.807L280.819 148.621L280.686 148.341L280.859 147.868L282.615 146.176L282.368 145.303L282.856 143.517L283.316 142.565L283.697 142.198L284.592 141.838L286.855 141.605L286.595 140.706L287.022 138.54L286.969 137.368L285.767 136.562L282.916 137.188L281.48 138.081L279.964 136.069L279.357 135.502L277.354 132.737L276.766 132.784L276.205 131.825L276.612 131.032L276.539 130.445L276.372 130.219L275.457 130.059L275.177 130.239L273.888 129.353L274.008 128.88L275.183 128.44L276.352 127.081L276.519 126.022L276.332 125.355L276.539 123.783L277.721 119.679L277.727 119.392L277.273 118.633L277.12 117.913L277.26 115.435L276.833 114.435L276.519 112.11L275.958 111.424L273.688 110.465L272.873 110.451L272.686 110.238L272.633 109.552L272.239 109.092L271.077 108.899L270.436 109.245L269.501 109.185L267.645 108.179L267.07 108.139L265.762 108.493L264.012 109.725L263.658 110.152L263.331 110.098L273.153 102.216L274.723 102.37L275.504 101.757L276.539 100.311L276.826 99.5448L277.861 98.7653L278.275 96.8465L279.023 96.54L280.652 94.9943L280.966 94.1881L281.16 92.9223L282.228 89.7976L283.537 88.7715L284.525 87.5989L285.079 86.6329L285.386 85.7801L285.266 84.5675L285.794 84.0278L285.099 82.9752L287.557 80.9165L287.47 79.8238L287.804 78.2381L288.965 77.1921L289.206 76.7191L289.807 74.707L289.86 73.6343L289.573 73.2812L288.912 73.3878L288.732 73.0614L288.765 72.6483L289.526 72.5484L289.907 72.0553L290.381 69.1305L290.274 68.2111L290.588 67.5248L291.102 67.225H291.523L291.683 67.0651L291.643 66.7053L291.87 66.2057L292.257 65.8525L293.152 66.5055L293.453 67.7314L294.247 67.8113L294.761 66.9052L295.169 68.8573L295.83 68.884L296.023 68.5575L296.07 67.9312L296.638 67.9046L297.766 68.2577L298.1 68.7174L297.145 69.85L297.593 70.3164L297.606 70.6829L298.414 69.3237L298.741 68.2977H299.042L299.309 68.9773V69.3637L298.728 69.9766L298.548 70.6362L298.601 72.4418L298.775 72.6616L299.088 72.7416L299.476 72.6483L300.117 72.0287L299.803 71.3624L299.896 70.9627L300.778 70.0099L301.479 69.8434L302.901 70.2365L303.903 69.4969L303.936 70.1099L303.696 70.2498L302.941 71.2691L303.335 71.6556L303.402 71.4091L304.237 71.0093L304.624 71.5357L304.53 72.3418L305.619 73.5077L306.193 73.2146L307.248 73.661L307.762 75.26L307.689 75.8929L306.227 77.7118L305.973 78.3048L306.04 78.7445L306.44 78.0582L307.609 76.9389L308.163 76.919L308.744 77.4586L309.091 78.7178L308.911 79.5373L308.263 79.6639L307.575 80.2702L306.801 81.2629L306.848 81.7759L306.073 83.3416L305.659 85.6868L305.799 85.9133L306.38 86.0666ZM306.727 86.3664L306.687 85.84L307.041 84.8207L306.767 84.1078L306.854 83.6681L307.462 82.8419L307.829 82.7153L307.862 84.281L307.716 85.1738L307.181 85.5735L306.727 86.3664ZM302.521 69.2038L302.227 68.8973L302.173 68.4976L302.708 67.7514L303.268 67.7314L303.723 68.0112L303.789 68.2377L303.662 68.4776L302.521 69.2038ZM304.858 71.9887L304.664 71.7888L304.704 71.4357L305.412 70.8427L305.732 70.8894L306.066 71.4557L305.973 71.8621L305.706 71.7488L304.858 71.9887ZM295.402 68.784L295.262 68.7507L295.897 66.3656L296.097 66.4255L296.117 66.5788L295.843 68.6175L295.402 68.784Z" fill="#FF9900"/>
<path d="M352.407 243.574L351.799 243.208L350.103 242.668L349.048 242.721L348.327 242.935L347.766 243.341L346.311 243.534L345.416 243.448L346.531 244.96L346.518 245.5L345.763 245.426L345.062 244.933L344.855 244.947L343.406 245.82L342.625 247.105L342.825 247.572L343.713 248.018L344.06 248.458L344.04 249.737L343.84 250.763L343.98 251.036L344.855 251.269L344.968 252.415L344.755 252.695L344.12 252.855L343.473 252.835L342.938 252.602L341.95 252.662L341.663 253.028L341.99 253.501L342.498 253.688L342.798 253.495L343.145 253.555L343.88 254.401L344.728 256.273L344.922 257.892L344.561 259.871L343.419 261.263L342.591 261.836L342.418 262.129L342.257 263.275L341.67 264.801L340.929 265.647L340.281 267.806L339.914 268.019L336.475 267.999L335.326 269.371L335.219 269.651L335.613 271.73L335.233 272.596L334.939 274.155L335.133 274.248L333.443 275.814L332.615 275.994L332.241 276.327L332.735 276.794L331.16 280.824L329.891 283.296L329.831 283.796L330.792 283.882L330.986 284.289L330.846 284.635L329.156 285.288L322.806 288.306L321.891 288.44L321.905 288.133L321.578 288.02L319.888 287.84L319.508 287.88L318.426 288.506L317.591 288.613L315.454 288.666L315.214 288.453L314.873 288.506L312.136 289.692L311.435 290.205L310.293 290.718L309.959 290.532L308.229 290.645L306.286 291.538L304.67 292.031L304.216 292.357L303.382 292.843L301.913 292.99L300.624 293.67L299.803 294.496L298.607 294.942L297.018 295.109L295.456 295.055L295.449 294.729L295.683 294.403L295.623 294.169L294.828 294.389L294.708 295.922L294.868 296.075L294.835 296.634L294.334 297.287L293.466 297.501L293.085 297.214L290.675 297.88L290.548 297.527L289.206 297.687L288.458 297.521L287.102 295.315L287.917 294.842L287.57 293.703L286.368 293.15L285.172 292.33L284.698 291.258L285.052 290.218L285.179 287.92L285.006 285.961L286.248 284.149L286.715 282.697L286.748 281.85L286.595 281.604L284.124 280.724L283.456 280.758L283.269 280.998L282.749 281.204L281.674 281.237L281.694 280.671L281.139 279.345L280.271 278.153L280.024 276.68L279.817 276.267L279.29 275.774L279.417 274.482L280.432 273.129L280.472 272.756L280.205 271.723L278.949 270.917L278.562 270.511L278.756 268.932L279.136 268.259L279.003 267.566L276.819 265.334L275.951 265.527L275.383 265.954L274.282 265.434L272.692 265.507L272.485 265.914L272.619 266.22L272.325 266.88L270.469 267.333L269.728 267.046L268.719 266.08L268.045 266.913L262.583 267.366L262.276 267.686L261.955 268.479L262.136 270.171L261.862 270.464L261.067 270.118L261.06 268.266L260.894 267.626L260.653 267.366L260.279 267.333L260.106 267.459L259.832 268.212L259.384 268.839L259.024 269.052L258.61 269.038L257.802 267.639L257.582 266.693L257.675 266.087L256.553 265.561L255.098 264.614L253.769 265.008L252.687 264.861L251.572 265.094L248.707 264.455L247.005 264.401L245.849 263.369L245.349 263.275L244.347 263.682L243.392 264.808L242.11 265.054L240.674 265.794L239.86 266.547L240.067 264.801L239.673 262.662L240.334 259.877L240.721 259.711L241.295 260.017L241.536 259.864L241.543 259.638L241.169 259.231L241.549 257.965L242.644 256.566L243.272 256.073L243.572 255.98L244.133 256.086L244.681 255.9L245.242 255.034L245.202 254.368L246.01 252.729L246.951 251.329L248.44 250.97L250.096 250.33L252.574 250.743L254.704 249.651L255.719 249.85L256.593 250.796H256.814L258.757 248.851L261.515 247.092L262.857 247.685L265.434 247.578L266.422 247.765L267.591 247.758L267.978 247.698L268.346 247.379L271.25 248.618L271.718 249.131L274.983 247.305L275.303 246.559L275.878 245.959L276.652 245.826L278.715 244.454L277.921 242.149L278.261 240.889L278.749 240.29L278.862 239.817L278.742 239.15L278.428 238.744L277.373 238.364L276.772 238.677L276.045 237.938L276.332 236.512L278.495 234.507L280.044 232.701V232.301L278.943 229.263L277.994 228.577L277.427 228.35L276.859 227.544L277.133 226.565L277.827 225.732L278.281 224.673L278.074 223.627L278.428 222.614L279.276 222.534L280.805 221.528L283.049 220.928L283.403 220.575L282.942 217.737L282.588 217.611L282.308 217.204L282.281 215.938L282.769 215.472L283.149 214.846L282.822 214.073L282.341 214.006L282.822 211.887L283.069 211.701L283.85 211.548L285.707 212.307L285.974 212.221L286.354 211.861L285.967 209.349L286.748 208.356L288.364 209.342L288.965 210.515L291.122 210.741L291.79 210.069L292.13 211.674L291.175 213.966L291.443 214.119L292.337 213.513L292.805 212.847L293.286 212.76L294.708 213.013L295.402 212.5L296.638 210.788L297.299 210.888L298.253 210.535L299.462 209.502L300.096 208.723L301.445 208.45L303.696 207.21L304.123 206.471L306.974 204.452L309.525 203.399L310.727 203.459L311.528 203.792L312.984 203.812L314.506 204.166L315.074 204.472L314.212 206.298L314.112 206.891L314.286 207.883L314.693 208.216L318.252 209.189L318.68 209.076L319.22 208.33L320.476 207.737L321.658 207.563L323.481 208.063L324.215 208.423L327.12 210.848L327.774 210.728L329.223 211.807L330.913 212.62L331.534 212.767L331.874 212.627L332.896 213.453L335.827 212.634L336.081 212.754L340.434 216.884L340.728 219.523L341.109 219.383L342.852 219.683L343.833 219.349L344.715 218.69L346.043 218.79L347.866 219.163L349.375 219.882L350.838 220.289L352.253 220.269L354.143 221.915L354.631 222.168L355.225 222.214L355.746 222.894L356.026 223.673L355.045 225.725L351.733 228.537L351.632 230.303L352.006 230.982V231.262L351.325 231.735L349.669 231.575L349.122 232.161L348.574 234.36L348.22 237.292L348.367 237.458L348.601 237.332L348.734 237.032L349.162 236.872L349.549 237.691L349.402 238.697L349.502 239.037L352.267 241.076L352.621 241.769L352.627 242.122L352.173 243.021L352.407 243.574Z" fill="#CD0000"/>
<path d="M239.86 266.547L239.593 268.186L239.406 268.453L238.404 268.973L237.523 268.999L237.209 269.146L236.394 269.832L235.065 271.618L234.578 272.051L233.903 272.25L233.489 273.37L233.383 275.322L231.653 277.747L231.012 278.093L230.859 278.347L231.066 279.633L231.012 280.265L230.204 281.824L228.869 283.33L229.102 283.897L228.915 284.703L227.954 285.389L227.687 286.195L226.532 287.321L225.69 288.947L224.388 290.193L219.34 293.211L218.499 293.97L218.005 294.996L217.444 295.716L213.831 297.228L213.09 297.774L212.469 299.327L212.482 300.093L211.514 302.465L211.067 302.918L209.958 303.591L209.217 303.804L208.997 304.037L207.949 309.314L207.708 309.86L206.119 310.9L204.416 309.347L202.139 308.088L199.475 309.401L199.021 309.9L197.912 310.227L196.19 310.513L194.614 310.207L193.939 309.774L193.626 306.929L193.412 306.462L192.811 305.829L192.657 304.184L192.998 303.291L192.571 302.765L192.51 302.472V300.559L191.916 299.247L191.515 297.421L191.482 296.942L191.876 296.036L191.889 294.963L190.841 294.237L190.587 293.704L190.48 292.265L189.379 291.052L187.93 290.879L186.921 291.085L185.699 290.892L184.057 289.586L183.683 288.594L182.655 288.813L181.206 290.639L180.538 290.239L179.389 290.779L178.668 290.885L177.506 290.426L175.797 290.099L173.487 290.253L171.043 289.779L170.722 289.173L169.393 289.087L168.799 289.433L167.13 288.847L167.737 284.003L167.45 282.417L167.851 281.471L168.505 280.499L168.906 276.481L168.465 274.929L168.432 273.776L167.924 273.137L167.637 273.077L167.31 273.51L166.883 271.338L166.355 270.092L165.547 268.746L165.313 267.527L168.004 265.994L168.512 265.408L165.707 262.836L169.3 255.228L170.048 255.188L169.861 253.769L169.367 253.682L171.523 246.8L171.964 246.027L169.901 242.129L169.921 240.857L170.388 240.99L171.069 241.723L172.505 242.736L176.258 241.423L177.627 240.091L178.975 238.125L179.035 237.346L179.97 236.38L181.7 236.4L182.741 236.253L183.256 236.48L184.364 236.14L185.265 235.307L186.614 234.98L187.462 235.114L187.97 235.88L189.833 236.713L191.582 237.026L192.016 237.259L192.197 237.832L192.717 238.512L194.741 239.284L195.582 240.024L196.41 240.404L199.428 239.984L200.27 239.451L200.597 238.885L201.552 238.478L203.181 238.525L204.243 239.218L204.443 240.131L204.603 240.297L205.264 240.324L206.686 239.738L207.361 239.777L211.114 235.773L212.008 235.687L211.187 240.091L209.985 240.557L208.877 242.442L208.75 242.749L208.85 243.102L209.718 243.175L210.88 244.021L213.965 244.201L214.345 243.822L216.122 243.768L216.703 243.822L217.484 244.201L218.519 243.995L218.646 245.174L218.472 246.893L218.626 247.633L218.813 247.906L219.253 248.032L220.015 247.586L221.517 248.186L221.57 248.465L220.696 249.638L220.315 250.417L220.141 250.977L220.228 251.197L222.766 251.663L224.622 251.557L226.425 252.676L227.186 252.789L228.148 253.262L228.595 253.669L230.645 254.708L231.099 255.274L233.336 256.167L234.331 256.194L235.6 256.48L236.681 257.513L238.785 257.919L240.561 259.412L240.721 259.712L240.334 259.878L239.673 262.663L240.067 264.802L239.86 266.547Z" fill="#FFD42A"/>
<path d="M138.37 197.417L139.351 196.465L142.096 194.752L142.443 193.12L143.398 190.602L144.019 189.882L145.114 189.529L145.401 189.256L145.788 188.696L146.135 187.197L147.244 185.858L147.618 184.366L147.665 183.226L147.277 182.234L147.304 180.868L146.282 178.642L145.681 178.662L145.294 178.323L145.007 176.157L145.1 175.278L146.009 174.558L146.943 173.392L147.057 172.893L146.115 170.501L145.401 170.214L144.66 170.141L142.323 170.201L141.508 169.462L141.668 169.088L130.21 169.055L130.811 163.059L129.809 161.227L129.629 160.054L129.649 159.521L130.317 157.176L130.063 155.89L130.691 154.777L130.136 153.265L130.036 152.339L129.863 151.932L129.342 151.619L129.302 151.386L130.163 148.062L130.671 147.116L130.27 146.289L129.335 145.643L161.286 145.43L162.094 144.944L162.882 141.466L163.804 138.654L163.497 137.362L163.056 136.449L162.989 135.883L163.27 135.316L163.844 134.89L164.645 133.677L164.825 133.004L164.598 132.445L164.638 131.938L164.772 131.532L165.56 130.732L166.341 131.452L167.977 134.157L168.244 135.33L169.159 137.968L170.04 139.254L170.555 140.333L170.401 141.959L170.722 143.558L171.209 145.023L172.231 145.763L174.234 147.595L176.491 148.728L176.644 149.354L176.618 150.087L176.771 150.413L177.406 150.68L177.953 150.567L179.042 150.866L179.402 151.346L179.536 152.066L179.769 152.279L180.684 151.979L183.148 152.972L205.878 154.584L247.925 156.903L247.491 157.582L247.117 158.841L246.383 159.674L246.089 161.766L245.802 162.333L245.555 162.513L244.259 166.037L243.899 168.016L243.872 169.981L242.617 173.972L242.657 174.545L243.585 175.438L243.478 176.017L242.931 176.61L242.897 176.944L243.632 178.443L243.318 180.648L243.325 181.694L243.672 182.08L243.966 184.112L243.472 185.951L244.126 188.176L244.767 188.516L245.301 188.53L245.355 188.949L245.174 189.702L244.527 190.275L244.293 190.875L244.4 192.687L244.139 193.4L242.804 195.512L242.116 197.264L241.308 197.784L241.388 201.235L240.32 203.294L239.933 205.119L240.253 205.879L240.26 206.412L239.478 208.324L238.918 210.276L237.989 211.229L237.181 211.715L236.36 211.262L235.646 211.435L234.544 212.108L233.262 213.401L233.008 213.894L232.581 216.625L232.107 217.265L230.785 220.057L230.571 220.243L228.755 220.816L226.985 220.903L226.05 222.648L224.882 223.295L224.828 224.321L224.281 225.273L223.426 225.966L223.092 226.639L222.872 227.938L222.037 229.284L220.755 230.463L219.406 231.023L218.939 231.536L218.685 233.475L216.982 236.04L216.715 238.312L216.822 238.785L217.764 240.244L217.884 242.529L218.518 243.995L217.483 244.201L216.702 243.822L216.121 243.768L214.345 243.822L213.964 244.201L210.879 244.022L209.717 243.175L208.849 243.102L208.749 242.749L208.876 242.443L209.984 240.557L211.186 240.091L212.008 235.687L211.113 235.773L207.36 239.778L206.686 239.738L205.264 240.324L204.603 240.297L204.442 240.131L204.242 239.218L203.18 238.525L201.551 238.478L200.596 238.885L200.269 239.451L199.428 239.984L196.409 240.404L195.581 240.024L194.74 239.285L192.717 238.512L192.196 237.832L192.016 237.259L191.582 237.026L189.832 236.713L187.969 235.88L187.462 235.114L186.614 234.981L185.265 235.307L184.363 236.14L183.255 236.48L182.741 236.253L181.699 236.4L179.97 236.38L179.035 237.346L178.975 238.125L177.626 240.091L176.257 241.423L172.504 242.736L171.069 241.723L170.388 240.99L169.92 240.857L169.48 240.41L169.266 239.877L169.626 239.404L167.997 237.972L167.142 238.392L166.795 238.358L166.014 237.905L165.713 237.439L164.365 236.5L163.103 235.993L162.902 235.78L162.702 235.034L162.548 233.082L162.141 231.902L162.014 229.464L162.602 228.371L163.363 227.645L163.59 226.459L163.557 225.2L162.916 225.24L162.649 225.64L162.395 225.746L144.459 225.027L143.758 216.599L140.173 212.515L143.431 212.475L143.197 207.444L141.435 203.9L141.107 202.587L141.281 201.881L141.688 201.515L142.122 200.662L141.161 198.71L139.084 198.017L138.37 197.417Z" fill="#FFD42A"/>
<path d="M247.926 156.902L205.879 154.583L183.149 152.971L180.685 151.978L179.77 152.278L179.537 152.072L179.403 151.346L179.036 150.866L177.948 150.566L177.4 150.679L176.766 150.419L176.612 150.086L176.639 149.353L176.485 148.727L174.228 147.595L172.225 145.756L171.197 145.016L170.716 143.55L170.395 141.958L170.549 140.332L170.035 139.246L169.147 137.961L168.232 135.329L167.972 134.156L166.336 131.451L165.548 130.732L165.167 130.359L165.067 129.053L164.64 128.213L163.578 127.174L162.863 126.788L162.616 126.408L162.062 124.849L162.082 124.096L162.469 123.45L163.438 122.697L163.958 121.824L183.924 79.0241L182.715 77.9115L182.802 77.3918L182.675 77.072L181.747 77.3052L181.179 77.7116L179.931 77.1919L179.196 75.7462L177.4 74.7801L176.552 73.8873L176.499 73.4876L175.617 72.9412L174.702 72.8413L173.2 72.4082L171.611 71.5355L170.355 71.0891L169.454 70.3629L169.033 69.7632L165.975 68.071L162.877 65.5592L162.676 65.2661L162.65 64.6464L162.282 63.4272L161.054 62.6077L160.586 62.7343L160.346 62.6011L159.124 61.2819L159.157 59.8761L159.391 59.4164L159.271 59.1432L158.142 58.5769L157.982 58.1239L157.862 56.6115L158.149 55.6454L157.882 52.4074L156.82 41.1012L157.321 41.3144L157.608 41.7008L157.595 42.0206L157.895 42.2871L158.51 42.4736L159.424 42.0006L159.738 41.4609L161.548 41.6142L162.089 40.9146L161.728 39.7087L162.923 39.4689L163.865 38.3829L165.628 39.0558L166.883 39.0758L167.244 38.0631L169.467 36.9838L170.783 37.2436L171.557 37.1703L171.884 37.0037L172.686 36.0177L172.953 35.0849L173.928 34.3521L174.502 34.2788L174.936 34.5853L176.345 33.8324L176.619 33.9057L176.866 34.5653L177.353 34.8651L178.709 35.1849L179.784 35.3514L180.158 34.9517L181.273 34.6919L181.794 34.8784L182.341 34.8717L182.915 34.6452L184.411 34.8451L187.53 35.7645L188.171 35.6712L188.838 35.0916L188.818 33.5726L187.436 31.9069L186.608 31.4872L186.935 30.3679L187.81 29.4018L187.997 28.6623L188.204 28.549L188.678 28.6756L189.232 29.182L190.801 29.9215L198.561 28.3691L199.609 29.4951L200.29 29.5351L200.584 29.3419L200.998 29.7216L201.245 31.254L200.831 32.1201L200.664 35.1449L200.824 36.1043L201.031 36.4641L201.812 36.4774L202.534 36.2842L204.797 36.5307L205.659 36.8572L206.947 37.5567L207.395 38.0897L207.722 38.9425L208.517 39.0225L209.278 39.5821L209.812 40.235L210.373 40.4149L211.261 40.3217L211.515 40.0418L212.142 39.9486L214.039 41.7208L214.493 41.7008L214.82 42.487L214.366 42.6402L214.239 43.1199L214.747 45.0054L216.095 46.5111L217.811 46.9975L217.925 47.2174L217.638 49.3094L217.765 50.7152L218.212 51.7212L218.626 52.0943L219.02 53.3002L218.933 54.3529L219.935 56.6714L220.482 56.798L221.003 56.5582L222.96 58.7435L222.906 60.3625L223.18 60.9887L223.814 61.1153L224.035 61.4285L224.242 62.4811L224.102 62.9408L224.175 63.807L225.424 64.7331L225.711 65.7324L226.679 66.4187L228.542 66.8717L229.41 66.7918L229.924 66.5652L230.552 66.6052L230.198 67.0982L230.392 68.1576L230.278 68.5107L229.417 69.2502L228.489 69.3635L228.155 69.2436L227.594 68.7172L227.153 68.6173L224.896 69.67L224.649 70.0297L223.581 70.5094L223.16 70.4961L222.125 70.8892L222.152 71.2756L226.465 70.5694L227.053 71.0091L227.14 71.3156V71.7553L226.726 72.0884L226.926 72.3283L227.347 72.195L227.921 71.5288L228.602 71.5221L228.956 71.3423L229.357 71.4222L230.071 71.1424L230.832 70.7626L233.023 69.2036L234.024 68.9704L235.253 68.4307L237.363 67.2048L237.723 66.5386L238.171 66.1921L239.566 65.5192L240.007 65.0395L239.84 64.5931L239.98 64.32L240.735 64.1334L241.463 64.1734L241.737 64.3133L241.99 66.8451L241.643 68.564L241.863 69.6433L242.404 70.7093L243.279 71.6087L243.479 72.7014L243.399 73.0145L242.171 74.2404L241.857 74.327L241.276 73.9806L240.06 73.6342L239.219 73.4276L238.598 73.5209L237.176 72.828L237.002 72.0818L236.415 71.7287L234.892 74.2737L234.485 75.8528L234.939 77.8315L235.259 78.2579L235.874 78.671L235.199 77.9115L234.912 76.1193L234.992 75.7728L236.708 72.9612L238.251 73.7474L238.324 74.0472L240.014 75.6795L239.847 77.0254L239.353 77.3918L239.62 78.9442L239.967 79.697L240.715 80.1967L241.209 80.2966L241.556 80.6231L241.329 80.1967L240.815 80.0368L240.014 79.3439L239.867 78.8909L240.094 76.0926L240.641 75.2998L241.596 75.7861L242.151 76.5856L242.09 77.112L242.892 77.685L243.059 77.4917L242.391 76.6523L241.777 75.2531V74.96L243.286 73.4143L244.367 73.4742L245.656 73.9006L245.883 74.2737L245.476 74.6668L245.69 74.8534L246.01 74.8734L246.698 74.7601L247.586 74.1605L250.317 73.5209L250.831 73.6541L251.993 74.3604L254.11 74.0805L254.824 73.8074L255.505 73.1345L256.16 72.7414L257.322 72.4016L257.836 72.4482L257.876 72.9479L256.514 75.6262L256.353 76.6256L256.046 77.3385L255.492 78.0247L255.485 78.611L255.873 79.5571L255.659 81.2027L256.246 80.4099L256.253 79.4772L257.281 77.4784L258.036 75.3531L258.784 74.3137L258.964 74.1338L259.472 74.1005L259.859 73.8673L261.074 73.7141L261.662 72.8147L262.67 71.6887L263.578 70.183L263.925 69.8765L264.453 70.203L264.867 69.8965L265.949 71.4555L266.743 71.8486L266.71 71.3556L266.476 70.8559L266.89 70.183L269.234 69.8432L268.546 69.63L266.202 69.9365L265.995 69.7965L266.189 68.1776L266.53 67.9843L266.977 68.2375L267.658 68.3108L268.373 66.2454L267.918 65.3194L267.939 64.8663L268.72 63.6604L270.616 62.0081L270.857 61.9548L271.598 62.7143L273.554 61.3219L273.861 61.2752L274.128 61.575L274.195 61.9548L273.982 62.4012L274.696 62.2946L275.237 61.9082L275.477 61.3885L275.898 61.2619L276.085 61.3618L276.579 62.2879L277.467 63.0874L277.601 62.7143L277.527 62.4611L276.886 62.1347L276.793 61.9415L276.706 61.142L276.819 60.8621L277.113 60.7356L278.636 60.9088L279.424 61.3418L279.838 62.0214L280.926 62.4945L282.028 61.9748L282.382 63.4006L282.048 63.6071L282.028 64.0002L282.642 63.6537L283.417 62.088L283.67 62.2413L283.517 63.1274L283.791 63.4205L285.467 63.2473L285.767 63.6804L286.074 64.7997L285.674 65.4326L286.241 65.0995L286.415 65.346L287.677 65.4393L290.034 64.6131L289.827 65.6658L289.326 66.885L290.308 66.5586L290.702 66.1455L291.122 67.2248L290.608 67.5246L290.294 68.2109L290.401 69.1303L289.927 72.0551L289.547 72.5482L288.785 72.6481L288.752 73.0612L288.932 73.3876L289.593 73.281L289.88 73.6342L289.827 74.7068L289.226 76.7189L288.986 77.1919L287.824 78.2379L287.49 79.8236L287.577 80.9163L285.119 82.975L285.814 84.0276L285.286 84.5673L285.407 85.7799L285.099 86.6327L284.545 87.5987L283.557 88.7713L282.248 89.7974L281.18 92.9221L280.986 94.188L280.672 94.9941L279.043 96.5398L278.295 96.8463L277.881 98.7651L276.846 99.5446L276.559 100.311L275.524 101.757L274.743 102.369L273.174 102.216L263.351 110.098L263.678 110.151L265.207 110.691L266.456 110.531L267.318 110.611L267.999 111.717L268.259 111.924L268.84 112.017L269.681 112.796L269.655 113.216L269.408 113.662L268.927 113.909L268.279 113.956L268.085 114.142L268.146 115.082L268.82 115.974L268.206 117.807L267.778 118.126L266.803 118.433L266.636 118.739L266.83 119.539L266.703 120.432L265.835 120.531L264.827 121.424L264.259 122.27L264.359 123.276L264.199 123.61L262.53 124.409L260.253 125.169L258.604 126.354L258.477 126.588L258.764 128.047L258.804 129.826L257.949 131.225L257.008 132.344L256.908 132.724L257.021 133.31L257.415 133.95L258.53 135.109L259.031 135.322L259.131 135.522L258.69 138.214L257.515 141.645L256.794 142.185L255.659 144.343L255.539 145.003L254.911 146.029L254.417 146.595L253.716 146.702L252.801 147.315L252.113 148.594L251.305 149.713L250.517 150.439L249.749 151.492L248.995 154.464L247.926 156.902ZM262.056 70.083L259.038 71.3889L256.774 71.7353L255.425 71.5288L254.991 72.2817L253.762 73.0745L253.282 72.6681L252.874 71.6487L252.721 71.8353L253.001 72.6548L252.774 73.1944L252.3 73.4676L249.783 72.3749L249.249 72.8546L246.451 73.6941L244.314 73.3143L243.773 72.9079L243.613 71.6754L243.459 71.4022L242.718 70.7226L242.01 69.6566L241.87 68.4707L242.217 66.6385L242.631 66.3854L243.806 66.6252L244.427 66.1255L244.481 65.7524L243.613 66.0389L242.798 65.9523L242.171 65.4793L242.05 64.7797L242.277 61.3951L242.765 60.8888L242.999 61.3885L244.174 61.7882L244.541 61.7483L244.234 61.4684L243.386 61.3219L242.785 59.8828L243.025 58.7635L243.62 57.4509L244.508 56.5648L245.149 56.1851L246.043 55.8586L246.925 55.772L249.235 56.1184L254.05 57.2977L256.52 56.9912L256.594 56.7914L257.355 56.3783L258.797 56.1318L260.727 56.325L262.597 56.8713L266.924 57.4376L267.344 57.7508L267.311 58.5702L266.843 59.0633L266.389 60.0626L266.149 61.8282L265.575 64.0268L264.713 64.4799L264.48 64.9396L264.633 65.7324L263.311 67.4514L262.383 69.7832L262.056 70.083ZM230.532 69.9698L230.031 69.63L230.766 68.1309L230.705 66.9383L230.872 66.7984L232.428 66.4786L233.029 65.9057L233.129 65.5725L232.996 64.0135L233.57 62.2946L234.411 61.3019L235.941 60.3225L237.857 60.1892L238.338 61.7616L237.603 63.2207L237.036 65.2461L236.301 65.6925L235.406 67.0449L234.886 67.5246L231.587 69.7299L230.532 69.9698ZM249.549 54.7127L248.861 54.5461L247.225 54.5994L246.698 54.4928L246.504 54.3196L246.25 53.5934L246.257 52.7672L247.265 52.4874L248.527 52.514L249.99 51.6546L253.202 51.2548L253.716 51.428L254.17 51.8811L254.05 52.5607L252.34 53.4868L251.152 55.1391L250.417 55.4722L249.549 54.7127ZM252.747 54.7127L253.989 53.9132L255.312 53.9331L256.413 54.3462L256.767 55.0058L256.801 55.4189L256.213 55.9319L254.31 56.1184L253.529 56.3316L252.02 55.7387L251.886 55.3856L252.747 54.7127ZM241.409 57.6375L241.075 57.4643L240.668 57.4909L239.64 57.0312L239.78 56.2584L240.207 55.6454L241.489 55.3789L243.065 54.7793L243.947 54.8326L244.481 55.2856L244.541 55.3722L243.252 56.4449L242.538 56.6714L241.409 57.6375ZM247.699 51.1815L247.152 50.9817L247.038 49.8757L247.139 49.4759L247.92 48.6031L249.556 47.9902L249.723 48.0701L250.077 48.5232L250.103 49.1162L248.801 50.442L247.699 51.1815ZM238.465 64.6531L238.371 64.3799L238.498 63.7603L239.192 61.8882L240.922 60.7622L241.403 60.5757L241.863 60.6689L241.757 61.8615L240.715 62.1547L239.633 63.6138L238.465 64.6531ZM245.75 52.9471L244.955 52.7406L244.755 52.4208L245.342 51.7812L245.816 49.1495L246.411 48.33L246.604 48.4166L246.651 48.6298L246.638 50.2821L247.038 51.528L246.825 52.1143L246.137 52.3808L245.75 52.9471ZM235.86 59.7362L235.68 59.6096L235.76 59.2032L236.128 58.9633L236.922 57.824L237.43 56.798L237.917 56.3583L238.885 55.9985L238.752 56.9912L238.485 57.6575L237.336 58.7635L235.86 59.7362ZM245.122 55.0524L244.721 54.9525L244.16 54.4795L243.519 53.3868L243.486 53.1336L243.64 52.9404L244.18 52.554L245.416 53.1137L245.609 53.4001L245.77 54.7926L245.122 55.0524ZM241.529 75.413L241.095 75.3397L240.508 74.9933L240.047 75.2998L239.546 75.1132L238.425 73.9539V73.5475L239.279 73.5409L241.322 74.4203L241.529 75.413ZM227.407 71.722L227.434 71.0358L227.3 70.8359L227.701 70.1763L229.277 69.59L229.797 69.8432L230.378 70.4162L230.185 70.6493L229.497 70.9625L227.801 71.2356L227.407 71.722ZM235.887 67.2648L235.767 67.2448L235.774 67.0116L236.134 66.3854L237.329 65.306L237.61 64.4799L237.643 63.6138L237.804 63.4139L238.017 63.707V64.7131L237.423 66.5319L237.009 66.965L235.887 67.2648ZM240.094 60.6689L241.196 58.6968L241.783 58.5569L242.257 58.6835L242.438 59.2631L242.05 59.7362L240.094 60.6689ZM261.074 73.3077L260.513 73.0745L260.286 72.3683L260.981 71.2223L261.695 71.0025L261.822 71.0691L261.809 71.5621L261.315 73.0545L261.074 73.3077ZM238.718 60.3358L238.358 60.2026L238.571 58.8434L239.46 57.6375L239.613 57.6641L240.474 58.2504L240.468 58.417L239.433 58.8434L238.718 60.3358ZM240.207 63.687L240.688 63.707L240.421 64.0068L239.793 64.2134L239.72 64.9596L239.192 65.4326L238.064 65.9923L237.957 65.8723L238.137 65.3194L238.451 64.8996L239.606 63.787L240.207 63.687ZM225.143 70.4894L224.776 70.3629L224.729 70.1297L225.016 69.8632L227.394 68.7972L227.754 69.2635L227.747 69.3968L226.813 69.8832L225.143 70.4894ZM267.565 67.3048L266.877 67.1782L266.329 66.6518L266.91 65.819L267.805 65.8124L267.932 66.6052L267.865 66.9983L267.565 67.3048ZM242.691 54.7127L241.116 55.179L240.722 55.1857L240.601 55.0458L241.289 54.3529L241.984 54.0131L242.678 54.1264L242.972 54.3529L243.072 54.5061L242.972 54.646L242.691 54.7127ZM239.172 60.4357L239.119 59.9294L239.286 59.5963L240.942 58.6235L240.341 59.956L239.8 60.3758L239.172 60.4357ZM240.601 63.4539L240.301 63.3739L240.254 63.2207L240.775 62.2213L241.57 62.2346L241.489 63.1341L240.601 63.4539ZM259.325 74.0006L259.138 73.8473L259.739 72.7814L260.193 72.5148L260.346 73.0145L260.687 73.2611L260.513 73.6075L260.226 73.834L259.805 73.7141L259.325 74.0006ZM241.523 58.4636L240.929 58.417L240.942 58.2904L242.518 57.0645L242.544 57.7041L242.391 58.1239L242.224 58.3504L241.523 58.4636ZM286.568 65.2727L286.315 64.9196L286.442 64.4133L287.123 63.807L287.29 63.9069L287.443 65.0728L286.568 65.2727Z" fill="#8DC41E" fill-opacity="0.67"/>
<path d="M407.782 132.857L406.113 131.484L405.565 131.311L403.796 131.171L402.254 131.884L401.265 132.737L400.965 133.936L399.696 134.622L398.354 134.922L397.593 134.909V135.309L397.059 135.662L395.603 135.855L393.012 135.682L391.937 136.268L391.57 136.694L390.354 136.761L389.76 137.221L389.4 137.727L389.66 138.213L389.667 138.573L389.4 138.893L388.211 139.912L387.316 140.019L386.214 140.579L385.146 140.052L384.512 139.426L384.278 137.934L384.438 137.607L384.318 137.407L383.557 137.194L383.263 137.387L382.255 137.554L382.281 137.254L383.971 135.495L384.084 135.209L383.604 133.963L383.577 133.65L383.824 133.13L385.827 132.417L385.901 132.217L385.567 131.291L383.23 130.012L382.241 130.285L380.759 131.124L380.138 132.131L379.15 132.71L378.449 132.917L376.646 134.169L375.631 135.262L374.542 135.415L372.786 136.061L372.272 135.842L372.306 135.388L371.885 134.562L371.631 134.509L371.01 134.995L370.002 135.209L369.341 134.989L368.406 133.716L368.139 133.656L368.025 133.49L368.82 132.743L369.895 130.418L369.668 129.625L369.207 129.572L368.379 128.979L368.393 127.873L368.159 127.393L367.772 127.2L367.611 126.927L367.691 126.308L367.805 126.054L368.533 125.635L368.973 124.762L368.626 123.889L369.314 121.89L369.875 121.124L369.928 120.764L370.309 120.458L371.598 121.55L372.199 121.83L374.122 122.237L374.896 121.484L377.053 120.378L377.601 119.905L377.667 119.212L377.941 118.579L380.065 117.773L381.019 117.693L383.196 117L383.624 117.053L383.978 117.346L383.984 118.139L381.988 120.278L381.694 120.918L381.44 122.077L381.166 122.33L380.599 122.497L380.459 122.703L380.405 123.849L382.762 124.195L382.976 124.349L383.183 125.268L383.377 125.421L385.48 124.582L386.662 124.529L387.964 124.728L388.558 125.508L388.211 126.534L388.765 127.027L390.334 126.407L390.668 125.914L391.036 125.108L390.722 124.482L390.615 123.536L390.935 123.143L391.61 123.356L391.256 122.337L390.775 121.817L390.982 120.831L392.197 119.931L393.119 119.898L393.399 120.158L393.333 120.824L393.747 121.151L396.03 121.417L396.384 121.65L400.277 121.391L401.726 121.59L403.369 122.323L404.063 122.057L406.4 122.197L407.021 122.037L407.081 123.636L408.049 126.561L408.09 126.987L407.969 127.613L407.722 127.913L407.702 128.499L408.09 128.006L408.43 127.007L408.437 128.326L408.831 128.999L408.65 132.45L408.41 132.85L407.782 132.857Z" fill="#FF9900"/>
<path d="M372.96 151.538L372.146 149.513L372.139 148.887L370.73 148.314L370.396 148.067L370.096 147.514L370.503 146.921L370.49 146.508L370.189 146.295L369.521 146.302L369.234 146.595L369.041 147.754L368.753 147.854L368.493 147.681L368.132 146.581L367.077 145.815L365.081 145.549L363.505 145.036L362.604 144.496L362.049 143.537L361.054 143.163L360.66 143.237L358.971 144.209L357.869 144.503L357.355 145.868L355.866 146.168L355.672 146.335L355.839 147.241L355.726 147.634L354.991 148.46L353.395 149.146L352.968 149.106L352.454 148.753L351.946 148.867L351.613 149.446L351.098 151.825L349.182 152.411L348.634 153.024L347.993 153.177L346.765 152.764L347.379 151.645L347.206 150.312L345.73 149.706L345.249 148.414L345.289 146.595L344.995 146.255L343.119 145.335L341.65 145.142L340.875 145.315L340.274 145.049L342.024 144.203L343.339 143.064L343.7 142.484L345.229 141.598L345.877 141.411L348.474 138.833L348.968 137.66L349.008 136.148L348.815 135.788L347.733 134.735L347.78 133.276L347.379 132.523L347.339 131.891L347.413 131.591L347.76 131.371L348.955 131.264L352.247 131.398L352.841 131.557L353.93 131.431L355.359 130.898L356.22 130.831L358.277 131.111L360.18 132.377L361.402 132.93L361.709 133.589L362.383 134.302L363.291 134.622L363.812 135.002L364.233 136.095L365.335 136.061L366.363 134.536L367.077 133.983L368.139 133.656L368.406 133.716L369.341 134.989L370.002 135.208L371.01 134.995L371.631 134.509L371.885 134.562L372.306 135.388L372.272 135.841L372.787 136.061L374.543 135.415L375.631 135.262L376.646 134.169L378.449 132.917L379.15 132.71L380.138 132.13L380.759 131.124L382.242 130.285L383.23 130.012L385.567 131.291L385.901 132.217L385.827 132.417L383.824 133.13L383.577 133.649L383.604 133.963L384.085 135.208L383.971 135.495L382.282 137.254L382.255 137.554L383.263 137.387L383.557 137.194L384.318 137.407L384.439 137.607L384.278 137.933L384.512 139.426L385.146 140.052L386.215 140.578L387.317 140.019L388.211 139.912L389.4 138.893L389.667 138.573L389.66 138.213L389.4 137.727L389.76 137.221L390.355 136.761L391.57 136.694L391.937 136.268L393.012 135.681L395.603 135.855L397.059 135.662L397.593 135.308V134.909L398.354 134.922L399.696 134.622L400.965 133.936L401.266 132.737L402.254 131.884L403.796 131.171L405.566 131.311L406.113 131.484L407.783 132.857L408.37 133.01L408.738 133.823L407.89 134.969L407.816 135.335L407.823 135.655L408.29 135.901L408.471 136.234L408.597 136.941L407.289 141.191L405.118 147.154L404.938 147.014L403.002 146.835L401.72 146.295L400.738 146.421L399.029 147.281L397.533 146.715L396.197 146.874L395.162 147.701L395.082 148L393.627 149.526L392.418 150.266L391.644 150.232L390.402 150.939L389.62 151.012L387.524 150.819L385.854 151.252L384.579 150.932L383.39 150.232L382.122 148.82L380.419 147.474L379.698 147.554L378.583 147.354L377.915 146.541L377.367 146.941L377.307 147.401L375.718 149.593L374.269 150.099L373.842 150.825L372.96 151.538Z" fill="#FF9900"/>
<path d="M337.85 84.7266L338.725 84.8065L339.185 84.6533L340.681 84.9931L341.342 85.5594L341.556 85.9591L341.482 86.4921L340.754 87.7247L339.699 89.0372L339.579 90.0099L339.773 90.8694L340.975 94.0141L343.078 98.2914L343.372 99.444L344.28 100.503L344.267 101.01L343.773 101.916L344.3 104.494L343.98 105.56L344.647 106.899L345.048 108.891L344.654 109.944L344.12 110.331L344.734 110.79L344.808 111.043L345.435 116.48L345.275 116.78L345.783 118.492L346.484 121.957L347.158 123.735L348.033 124.169L349.742 124.482L350.256 125.255L350.25 125.714L349.248 127.213L348.487 129.285L348.54 129.932L348.994 130.385L348.954 131.264L347.759 131.371L347.412 131.591L347.338 131.89L347.378 132.523L347.779 133.276L347.732 134.735L348.814 135.788L349.008 136.148L348.968 137.66L348.473 138.833L345.876 141.411L345.228 141.598L343.699 142.484L343.339 143.063L342.023 144.203L340.274 145.049L339.973 145.822L338.972 147.354L338.27 147.8L337.743 147.68L336.407 147.934L336.481 149.533L335.239 150.732L335.025 150.699L334.611 150.286L333.169 150.279L332.621 150.932L332.107 151.172L330.284 151.398L329.276 152.291L328.729 153.104L327.593 153.17L326.605 153.597L324.602 153.67L324.054 153.484L323.927 153.297L324.014 152.857L322.872 152.204L321.984 151.944L321.056 152.311L319.634 152.597L319.42 152.478L319.146 151.858L318.145 151.551L316.843 151.565L314.679 152.664L314.639 153.284L316.135 156.242L316.215 157.008L316.021 158.72L315.855 159.327L315.374 159.9L313.404 163.264L311.421 164.876L310.519 165.156L309.531 164.803L308.636 164.69L307.167 165.19L306.386 165.783L305.939 166.362L305.177 166.615L304.677 167.581L304.456 167.721L303.047 167.601L301.845 167.948L299.054 166.715L297.872 165.056L297.518 163.584L297.078 162.891L296.116 161.998L294.56 162.012L292.597 161.872L292.631 160.592L292.804 159.886L293.572 158.254L293.659 154.017L294.166 153.084L294.186 152.744L293.031 150.705L292.717 148.58L292.25 147.287L292.737 145.955L293.873 145.022L294.674 143.37L294.761 142.364L294.988 141.811L295.188 141.671L296.15 139.845L296.57 138.3L296.831 136.321L297.485 134.336L298.907 133.036L300.724 132.53L302.466 132.323L303.181 132.077L304.316 131.058L305.017 131.031L305.912 130.684L307.822 128.972L309.384 128.366L310.726 127.033L311.147 126.454V126.147L312.416 124.868L312.75 124.722L313.31 124.562L313.464 124.762L314.212 124.588L314.88 124.189L315.855 124.062L316.529 124.202L318.205 125.414L319.213 125.348L320.843 124.775L321.397 124.748L321.831 124.935L323.353 124.742L324.161 123.869L324.495 122.896L324.575 122.09L324.769 121.797L325.029 120.331L324.942 119.765L324.829 119.432L323.754 118.825L322.565 117.473L322.225 115.94L322.151 114.535L322.265 112.882L325.003 109.931L325.143 109.564L325.21 107.945L324.842 105.96L323.787 104.094L324.548 102.182L324.735 101.203L324.482 100.357L323.66 99.7971L323.427 98.5179L323.941 97.8184L324.368 97.7051L324.916 96.3859L326.178 95.1534L326.765 93.9341L326.739 92.7415L328.688 90.4696L329.229 90.5762L331.44 90.2697L334.197 87.6247L335.393 86.1124L335.653 85.093L335.226 84.7399L335.079 84.2602L335.386 83.3008L335.873 83.3807L336.855 83.9604L337.195 84.3002L337.109 84.5067L337.85 84.7266Z" fill="#FF9900"/>
<path d="M265.1 332.899L261.601 332.879L261.381 333.172L260.219 333.332L259.711 333.285L259.638 333.026L258.589 333.405L257.688 334.358L255.451 335.777L254.49 335.671L253.668 335.258L251.578 333.525L250.89 333.265L250.383 333.259L248.487 333.745L246.931 333.858L246.39 333.838L245.442 333.332L244.7 333.425L243.679 333.858L243.285 334.838L242.797 335.417L241.549 336.07L239.165 335.797L237.829 336.563L237.349 337.076L236.888 338.136L237.456 340.128L236.875 340.701L236.26 340.714L235.76 340.967L235.646 341.294L234.758 340.035L231.92 340.121L229.409 339.835L228.354 339.049L228.247 338.775L227.56 338.356L224.715 338.116L221.183 336.996L219.62 337.376L217.824 337.356L216.475 336.417L216.262 336.077L215.554 335.917L215.2 335.91L214.726 336.157L212.302 336.144L212.155 335.338L210.466 332.553L210.479 330.827L209.818 328.908L207.534 327.329L206.806 328.082L205.391 328.009L204.656 328.295L203.942 328.895L202.967 328.175L202.419 328.215L202.232 326.75L202.673 325.704L203.388 324.857L204.202 323.405L204.242 323.178L203.915 322.679L203.928 321.853L204.529 319.427L205.371 317.415L205.204 315.883L206.059 314.297L205.918 313.618L205.357 313.031L205.15 311.965L205.591 311.259L206.119 310.899L207.708 309.86L207.948 309.314L208.997 304.037L209.217 303.804L209.958 303.591L211.067 302.918L211.514 302.465L212.482 300.093L212.469 299.327L213.09 297.774L213.831 297.228L217.443 295.716L219.62 294.19L222.178 294.623L224.855 294.55L227.039 294.743L227.847 294.33L228.081 293.93L228.568 293.684L229.349 293.877L230.337 294.396L232.02 294.703L233.783 295.429L234.658 295.516L235.372 295.156L237.095 295.149L237.616 295.816L238.784 296.375L241.128 296.908L241.549 297.248L242.023 298.127L243.178 298.174L243.459 297.948L244.56 298.048L245.001 298.407L248.547 298.494L250.53 297.928L251.284 298.96L253.682 300.846L254.276 302.018L254.283 303.844L254.022 304.23L253.915 304.77L254.169 305.996L255.037 307.002L254.984 308.175L254.743 308.548L255.738 310.546L256.546 311.313L256.994 311.499L257.327 311.952L257.294 312.545L257.908 313.858L258.309 314.051L258.476 314.344L258.309 315.044L257.461 316.463L257.675 317.822L258.075 318.075L258.75 318.215L260.339 318.135L262.623 317.782L262.956 318.042L264.011 317.915L265.073 318.002L266.148 318.841L266.055 319.114L265.46 319.547L265 321.746L265.233 322.266L265.948 322.619L266.382 322.052L267.116 320.214L267.624 320.1L269.053 320.487L268.786 321.786L269.273 323.985L270.221 324.371L270.328 325.251L269.427 325.93L269.019 326.916L268.652 326.836L268.833 325.544L269.794 324.911L268.853 325.097L268.258 325.424L267.677 325.41L267.45 325.151L267.07 325.037L266.709 325.284L266.522 325.903L266.869 326.436L266.382 327.076L266.182 327.143L264.526 326.79L263.998 326.43L263.698 326.51L263.577 327.109L263.804 327.356L264.88 327.729L265.814 327.562L267.237 327.962L267.417 328.282L266.769 328.735L265.741 330.587L264.913 331.1L263.297 331.48L263.163 331.78L265.133 331.646L265.233 332.439L265.1 332.899Z" fill="#3B6097"/>
<path d="M312.91 300.172L312.863 299.652L313.117 299.472L315.247 299.619L316.976 299.226L315.287 298.193L314.352 297.86L312.476 298.313L311.568 299.379L310.88 299.592L310.412 299.559L309.511 298.127H309.19L308.589 298.406L307.948 299.113L305.845 299.646L305.618 300.252L305.491 301.518L306.953 301.604L307.668 302.277L306.9 302.997L306.272 302.884L305.324 302.997L305.004 302.824L303.915 301.671L303.882 301.398L304.61 299.066L305.338 298.3L306.907 297.627L307.241 297.727L309.09 297.487L310.092 297.014L311.194 295.582L310.693 294.489L309.558 294.482L307.454 294.835L306.272 294.576L305.451 293.516L305.077 292.737L304.229 292.377L304.683 292.05L306.299 291.557L308.242 290.665L309.965 290.551L310.299 290.731L311.447 290.218L312.148 289.705L314.879 288.513L315.227 288.466L315.467 288.673L317.604 288.626L318.439 288.513L319.527 287.886L319.908 287.846L321.597 288.026L321.924 288.14L321.911 288.453L322.832 288.319L329.182 285.301L330.872 284.642L331.012 284.295L330.825 283.889L329.864 283.802L329.924 283.303L331.186 280.831L332.762 276.807L332.274 276.334L332.648 276.007L333.476 275.827L335.165 274.255L336.454 274.761L336.901 277.899L338.571 278.652L341.462 279.325L343.459 279.079L344.54 279.785L344.487 280.631L343.859 281.704L343.712 283.123L344.474 287.64L344.14 288.093L342.083 289.259L338.097 290.551L336.207 291.697L333.87 294.156L333.797 295.262L334.004 296.055L333.877 297.134L333.389 298.12L332.174 298.46L327.8 298.347L323.934 298.813L322.338 298.506L322.011 298.253L321.971 297.8L322.659 296.814L323.106 295.848L323.046 295.435L322.525 295.315L320.662 296.081L320.488 296.541L320.695 297.067L321.617 297.847L321.784 298.493L321.39 298.84L320.302 299.179L319.253 299.159L313.885 299.872L312.91 300.172ZM309.498 301.498L309.05 300.852L310.459 299.819L311.701 300.445L311.988 300.912L310.346 301.245L310.072 301.012H309.758L309.498 301.498Z" fill="#CD0000"/>
<path d="M407.021 122.036L406.4 122.196L404.063 122.056L403.369 122.323L401.726 121.59L400.277 121.39L396.384 121.65L396.03 121.417L393.747 121.15L393.333 120.824L393.4 120.157L393.119 119.898L392.198 119.931L390.982 120.83L390.775 121.816L391.256 122.336L391.61 123.355L390.936 123.142L390.615 123.535L390.722 124.481L391.036 125.108L390.669 125.914L390.335 126.407L388.765 127.027L388.211 126.533L388.558 125.507L387.964 124.728L386.662 124.528L385.48 124.581L383.377 125.421L383.183 125.268L382.976 124.348L382.763 124.195L380.405 123.849L380.459 122.703L380.599 122.496L381.167 122.329L381.44 122.076L381.694 120.917L381.988 120.277L383.984 118.139L383.978 117.346L383.624 117.053L383.197 116.999L381.02 117.692L380.065 117.772L377.941 118.578L377.668 119.211L377.601 119.904L377.053 120.377L374.897 121.483L374.122 122.236L372.199 121.83L371.598 121.55L370.309 120.457L369.929 120.764L369.488 121.017L369.061 120.904L369.288 119.591L370.229 118.092L370.79 117.506L371.131 117.459L371.651 117.799L372.339 117.626L372.72 116.893L373.695 115.887L374.629 114.261L374.529 113.768L374.963 112.656L375.544 112.276L376.105 111.53L378.309 107.072L380.052 105.733L383.317 104.674L383.631 105.18L384.205 105.68L386.295 105.673L387.109 105.946L388.238 107.112L389.119 107.445L391.343 107.232L393.266 107.579L394.962 107.419L396.518 106.932L399.523 107.545L400.371 107.572L401.673 108.145L402.354 108.691L402.781 109.318L404.324 112.476L404.658 113.668L404.631 114.168L405.619 117.752L405.759 118.872L406.24 119.231L406.881 121.024L407.021 122.036Z" fill="#FF9900"/>
<path d="M125.255 194.018L124.394 193.052L124.1 191.8L123.059 191.453L122.484 191.666L121.276 191.72L118.558 190.514L118.551 190.247L118.111 189.841L117.263 190.234L115.94 189.115L114.926 188.468L114.351 187.496L114.164 186.569L113.47 186.31L112.288 187.056L111.473 187.036L110.532 186.503L109.951 185.617L107.861 184.564L106.552 184.451L105.791 184.811L105.19 185.377L104.235 185.264L104.028 185.064L102.599 184.724L100.556 184.537L100.048 184.251L99.2604 183.458L99.0601 182.146L98.0051 181.819L96.743 181.173L96.1955 180.027L96.0018 179.894L94.1856 179.707L93.9319 179.474L93.371 177.002L92.7834 176.409L92.4628 177.182L92.0221 176.969L91.8418 176.542L92.2558 175.523L91.6949 174.51L90.7868 174.251L89.9455 171.939L89.832 170.833L90.8669 168.894L90.7267 167.788L89.9521 166.475L89.4513 165.036L89.4113 163.511L89.8253 163.177L90.079 162.265L90.7735 161.565L91.0138 160.586L90.8536 159.593L90.5731 159L90.513 157.981L90.8736 156.881L90.0924 155.429L89.4113 155.176L88.6834 155.829L88.6434 156.169L88.0825 156.808H87.7019L86.2462 156.129L82.7873 156.182L79.0413 157.368L77.9128 157.361L76.9246 157.681L74.9414 156.841L77.1182 155.136L78.4003 154.749L79.4353 153.543L79.5354 153.17L79.4286 152.311L82.0728 152.484L83.9893 152.264L84.47 152.511L86.0125 154.063L86.2596 154.05L87.0742 153.523L87.161 153.044L87.4348 152.691L88.1559 152.358L88.6701 152.444L89.5849 152.184L90.453 151.378L91.6816 150.699L91.9353 150.759L92.3627 152.264L92.8167 152.617L93.2708 152.564L94.9669 150.459L94.7932 149.293L95.1471 148.733L96.3157 147.894L96.6228 147.907L97.1837 148.273L98.379 148.34L99.1803 147.627L100.603 147.374L103.187 147.68L103.026 146.708L103.1 145.502L104.475 144.696L105.016 143.93L105.257 143.25L105.143 142.95L104.542 142.484L104.576 142.037L105.37 140.978L107.026 140.625L107.2 140.478L107.14 139.699L108.288 139.366L109.21 137.66L116.415 137.62L117.85 138.373L118.151 138.699L118.685 139.972L119.573 140.818L121.269 141.471L122.104 143.65L122.411 143.79L123.065 143.703L123.479 143.836L123.933 145.755L126.097 146.741L126.551 146.614L126.911 145.455L128.193 144.736L129.122 144.922L129.362 145.175L129.335 145.642L130.27 146.288L130.671 147.114L130.163 148.06L129.302 151.385L129.342 151.618L129.863 151.931L130.036 152.338L130.137 153.264L130.691 154.776L130.063 155.889L130.317 157.175L129.649 159.52L129.629 160.053L129.809 161.225L130.811 163.058L130.21 169.054L141.668 169.087L141.508 169.46L142.323 170.2L144.66 170.14L145.401 170.213L146.116 170.5L147.057 172.891L146.944 173.391L146.009 174.557L145.101 175.277L145.007 176.156L145.294 178.321L145.682 178.661L146.282 178.641L147.304 180.866L147.277 182.232L147.665 183.225L147.618 184.364L147.244 185.857L146.136 187.196L145.788 188.695L145.401 189.254L145.114 189.528L144.019 189.881L143.398 190.6L142.443 193.119L142.096 194.751L139.351 196.463L138.37 197.416L137.876 197.389L136.146 196.357L135.298 195.404L130.571 196.044L129.689 195.757L129.522 195.557L127.265 195.997L126.945 195.89L126.598 194.991L125.255 194.018Z" fill="#FFD233"/>
<path d="M156.833 41.0806L157.901 52.3869L145.555 52.3402L145.575 52.7933L144.019 54.9652L142.91 56.984L142.864 57.7368L142.096 59.4957L142.022 59.9355L142.176 60.4218L142.937 61.3612L142.924 61.7144L142.643 61.9742L141.288 62.3406L140.346 63.28L139.512 63.5865L138.296 63.4333L137.682 61.761L136.433 60.4018L134.544 59.7822L133.475 59.8222L133.108 60.4152L131.713 60.8882L130.858 61.3479L130.177 62.1874L129.629 64.1662L129.876 65.3654L129.709 66.518L129.208 68.0437L129.502 69.4495L127.926 68.7566L127.032 69.0364L126.678 68.9898L125.983 67.6307L124.995 66.5313L123.686 65.6586L123.339 65.6319L119.994 62.6871L120.087 61.9276L121.316 62.1474L122.077 61.268L122.117 60.8815L121.363 57.9967L120.975 57.3971L120.161 56.8374L119.573 55.3916L119.379 52.0737L119.76 51.4341L120.274 49.4087L119.833 48.356L119.593 47.2967L120.675 46.324L120.641 46.0242L120.06 45.278L119.934 43.7722L118.825 40.6009L117.002 38.1091L117.476 37.1097L118.084 34.8978L117.757 34.4581L116.455 33.8251L115.547 33.7519L114.959 33.8918L114.311 33.6452L113.503 32.8657L113.463 32.2261L113.043 32.1528L112.288 32.4327L111.881 32.426L111.38 32.1995L110.899 31.6798L111.099 31.3733L111.253 29.8543L111.053 29.7077L108.802 29.5545L106.298 29.6477L104.088 29.1814L103.955 28.7816L104.489 27.609L104.569 26.623L104.082 25.4437L102.786 23.0852L102.299 21.7127L101.985 19.2343L102.512 18.2482L102.459 17.6086L101.23 16.2761L99.788 15.5699L97.9116 13.7177L97.2038 12.5118L97.0102 11.8722L96.249 11.4391L96.082 11.1793L96.1021 10.6196L96.2957 10.3998L96.8967 10.4464L97.6445 10.8862L98.2722 12.0388L98.6795 12.0987L100.943 11.7656L101.845 11.8322L103.12 12.2253L103.527 13.0248L103.895 14.3107L104.255 14.5439L104.896 14.4906L105.39 14.0575L106.025 13.791L108.148 13.8976L108.462 13.9309L109.337 14.7371L109.737 14.837L110.084 14.7437L110.492 13.7044L111.367 13.7977L112.335 14.4173L114.959 17.462L115.66 17.8418L116.134 17.9151L117.142 17.462L117.637 16.7092L117.703 16.1495L117.149 14.3107L117.39 13.1514L117.697 12.9648L118.985 12.9315L119.66 12.1987L120.695 11.4725L121.196 11.5058L123.8 12.3985L124.194 12.2853L124.728 11.8056L125.416 11.6057L126.17 11.8389L126.858 11.699L127.753 10.8462L128.421 10.6796L129.188 10.8329L129.93 10.7862L130.384 10.2199L130.417 9.32046L132.44 8.11455L133.996 8.24114L135.839 7.9813L136.433 7.22844L136.494 6.7554L136.887 6.0092L137.388 5.92259L138.624 5.32296L139.358 4.63006L140.099 3.49078L139.298 1.11893L138.517 0.879077L138.944 0.759152L139.899 0.805789L140.433 1.01899L142.817 0.952364L143.525 0.319427L144.019 0.172852L144.934 0.452677L145.288 1.32546L145.982 1.85846L146.303 2.77123L145.855 6.03585L145.374 6.95528L144.54 7.42165L144.58 7.97464L145.655 8.2478L146.737 8.10123L148.306 8.64089L149.521 9.37376L148.933 10.3265L148.927 11.0927L150.489 13.3713L150.623 14.4039L149.615 16.3494L148.359 17.2888L147.878 18.2882L148.059 18.548L148.099 19.9938L147.117 21.5994L146.516 23.445L146.309 25.1572L146.249 26.9361L146.904 28.182L147.244 29.3546L147.237 30.2873L148.286 30.9736L148.887 31.1068L148.974 31.5599L148.666 34.9911L148.747 35.4841L149.955 35.6773L149.514 36.4568L149.822 36.79L151.257 37.283L152.232 38.5622L154.008 40.3877L156.833 41.0806Z" fill="#8DC41E" fill-opacity="0.67"/>
<path d="M215.181 425.587L214.94 425.594L213.645 424.854L213.511 424.548L213.859 421.703L213.551 418.871L213.652 418.158L214.072 417.332L215.969 415.746L216.523 414.707L218.059 413.001L217.084 411.902L216.369 411.489L214.867 411.089L213.318 409.59L212.51 408.511L212.443 407.452L212.156 406.665L211.335 405.313L209.959 403.821L209.512 403.427L207.916 402.621L206.948 402.761L205.679 401.755L204.664 400.669L203.829 400.15L203.736 399.017L202.467 397.578L200.25 397.271L199.636 396.958L198.481 395.852L197.305 395.939L195.856 395.019L194.581 392.548L193.84 391.555L192.15 390.142L191.683 390.196L191.236 391.388L189.506 392.881L187.723 392.961L187.79 391.055L188.057 390.202L187.797 389.536L185.36 386.678L183.777 385.499L182.321 384.126L181.153 382.72L179.357 381.248L178.088 381.155L176.652 381.295L175.891 382.201L175.851 382.84L175.163 383.487L174.422 383.5L174.035 383.18L171.925 383.273L171.491 382.954L171.384 382.347L171.057 382.201L171.624 382.054L172.319 381.575L174.001 379.729L174.075 378.503L174.475 377.67L175.023 377.37L175.884 377.324L176.312 377.151L176.926 376.484L180.565 372.167L180.986 371.221L181.099 370.481L181.647 369.769L182.448 369.202L183.363 368.929L184.672 366.117L184.739 365.711L184.946 365.465L186.041 364.892L187.129 363.692L187.697 362.926L188.037 362.067L188.932 360.668L189.553 360.474L190.601 360.594L190.969 361.121L191.282 360.268L191.142 359.881L190.241 359.335L190.207 359.095L190.441 358.875L191.162 358.622L191.71 357.983L193.573 357.35L194.274 356.637L194.341 356.024L194.888 355.418L196.364 354.651L198.013 354.385L199.195 353.179L199.295 352.473L200.177 350.9L200.397 350.874L200.43 351.114L200.624 351.247L201.512 351.134L203.141 350.381L204.931 349.988L205.739 349.608L207.141 348.042L207.475 348.049L207.922 347.789L208.597 346.89L210.139 346.403L210.34 346.656L212.69 346.916L214.867 346.15L215.241 345.61L216.142 345.997L216.042 346.61L218.099 346.59L219.187 347.249L220.897 347.003L222.179 347.769L223.901 347.496L224.93 347.616L226.799 347.509L228.308 348.122L229.964 349.055L230.632 350.681L231.694 350.807L231.754 350.487L232.963 350.254L236.675 352.613L237.59 353.645L238.064 353.625L239.106 354.278L241.129 356.603L242.224 358.076L242.545 359.062L243.994 360.834L244.775 361.201L249.242 361.907L250.651 361.64L252.888 361.867L253.475 363.426L252.087 364.479L251.239 364.752L250.751 365.991L250.898 367.45L250.644 368.489L250.297 369.356L249.509 369.489L248.648 370.615L248.628 371.554L249.83 372.334L250.01 372.2L249.823 371.554L249.83 370.915L250.825 370.368L251.88 370.795L252.367 371.401L253.148 371.967L253.449 371.947L252.514 373.1L249.91 377.79L247.099 385.519L242.892 392.501L239.259 396.938L234.912 400.909L230.846 403.361L228.776 406.232L228.656 405.946L229.09 404.893L229.317 403.441L228.529 402.302L228.596 402.022L229.217 401.908L229.891 402.175L230.265 402.561L230.946 402.588L232.669 401.649L233.216 401.196L235.119 398.724L235.62 398.264L235.921 398.391L236.602 398.264L237.303 397.704L237.924 396.858L238.171 395.872L238.291 395.253L238.138 393.853L238.271 392.941L239.319 392.894L239.814 393.094L239.994 393.647L240.228 393.474L240.034 392.541L240.374 391.162L240.695 390.782L242.525 389.723L243.012 389.003L243.326 387.171L243.186 385.652L243.56 385.199L243.893 385.732L244.14 385.752L244.428 385.472L244.741 383.42L244.675 383.127L244.04 382.314L243.593 382.294L243.419 382.754L243.533 383.014L243.439 383.393L243.206 383.527L242.197 383.513L240.855 383.78L240.628 384.852L240.274 384.886L239.733 384.593L239.8 383.453L239.253 382.86L238.558 383.08L238.158 382.76L237.67 381.921L237.403 380.955L237.483 380.575L237.056 380.115L236.648 381.921L236.942 383.42L237.777 384.826L237.396 385.365L236.902 387.058L237.156 389.076L237.036 389.59L236.715 389.343L236.889 389.183L236.869 388.71L236.555 387.857L236.255 387.597L235.901 388.037L235.881 388.95L234.939 391.129L234.906 392.388L235.053 392.734L234.572 393.201L233.497 393.627L233.089 394.68L230.358 395.726L229.878 396.079L229.524 397.138L229.457 398.65L228.809 400.163L227.233 401.029L227.16 402.202L227.48 402.755L227.647 403.434L227.013 403.807L226.846 404.813L227.133 405.213L227.587 405.12L228.455 405.54L228.556 406.146L227.133 407.245L225.584 410.257L224.295 414.84L222.953 417.832L221.831 419.511L216.63 424.528L215.181 425.587Z" fill="#3B6097"/>
<path d="M253.448 371.947L253.147 371.967L252.366 371.401L251.879 370.788L250.817 370.368L249.829 370.915L249.822 371.554L250.009 372.2L249.829 372.334L248.627 371.554L248.653 370.615L249.508 369.489L250.296 369.356L250.65 368.483L250.897 367.45L250.75 365.991L251.238 364.752L252.086 364.472L253.475 363.419L252.887 361.86L250.65 361.634L249.241 361.9L244.774 361.194L243.999 360.834L242.55 359.062L242.223 358.076L241.135 356.604L239.112 354.278L238.063 353.619L237.589 353.639L236.674 352.606L232.962 350.247L231.753 350.474L231.693 350.794L230.625 350.667L229.957 349.042L228.308 348.116L226.792 347.496L224.929 347.603L223.9 347.483L222.171 347.756L220.896 346.99L219.18 347.229L218.091 346.576L216.034 346.596L216.135 345.977L215.233 345.59L214.859 346.13L212.682 346.903L210.332 346.643L211.3 344.691L211.788 343.299L211.4 341.133L211.674 338.995L211.647 337.296L212.288 336.13L214.712 336.143L215.186 335.89L215.54 335.896L216.248 336.056L216.455 336.396L217.811 337.336L219.6 337.356L221.163 336.969L224.695 338.088L227.54 338.328L228.221 338.748L228.334 339.021L229.383 339.807L231.9 340.087L234.738 340.001L235.626 341.266L235.746 340.933L236.24 340.68L236.855 340.667L237.436 340.094L236.868 338.102L237.329 337.049L237.809 336.529L239.145 335.77L241.529 336.036L242.777 335.39L243.265 334.811L243.659 333.824L244.68 333.391L245.422 333.298L246.37 333.804L246.911 333.824L248.467 333.711L250.363 333.225L250.864 333.231L251.558 333.498L253.641 335.23L254.463 335.643L255.424 335.75L257.661 334.331L258.563 333.378L259.604 332.998L259.685 333.258L260.192 333.305L261.354 333.152L261.574 332.858L265.073 332.878L264.813 333.758L265.153 334.857L265.107 335.117L264.105 335.877L263.451 335.557L262.903 333.871L262.89 334.617L263.284 336.43L264.425 337.535L264.799 338.168L264.125 339.694L264.018 341.24L264.085 341.526L264.592 342.013L264.766 345.917L264.973 346.283L265.26 346.417L265.774 346.077L266.008 346.556L266.075 347.136L265.761 347.176L265.474 346.99L264.679 347.409L264.452 349.968L264.833 351.693L264.452 352.193L264.659 353.479L265.267 354.731L264.693 356.29L264.345 358.962L263.203 362.08L262.976 362.013L262.736 361.507L262.876 360.861L262.262 360.075L262.088 360.295L262.209 361.914L262.983 362.467L262.369 363.572L261.274 364.006L258.516 366.031L256.646 367.737L254.142 370.695L253.448 371.947ZM265.387 354.258L265.287 353.945L265.454 352.779L265.961 351.18L265.694 350.394L265.801 349.715L266.736 349.208L266.883 349.248L267.323 349.874L266.963 351.58L266.415 352.153L266.021 352.966L266.155 353.745L265.387 354.258ZM265.087 338.022L263.838 336.676L265.541 335.05L265.708 335.077L266.142 335.777L265.567 336.656L265.087 338.022Z" fill="#3B6097"/>
<path d="M380.745 174.525L378.809 175.118L377.774 174.691L377.413 174.465L377.093 173.985L375.811 173.372L375.41 173.026L375.33 172.753L375.557 172.493L375.644 171.547L375.544 171.287L374.589 170.281L374.242 169.288L373.514 168.842L372.873 167.776L372.859 167.263L373.253 166.21L373.467 166.01L374.602 166.017L375.357 166.517L377.059 165.857L377.52 165.491L377.72 165.104L377.213 163.272L377.266 162.686L377.707 161.606L377.761 159.534L377.26 158.768L375.931 157.469L375.083 155.803L374.936 154.378L375.383 153.611L379.697 155.597L382.154 156.23L385.773 158.275L386.641 159.907L387.817 160.873L388.925 161.4L389.232 161.42L391.629 162.906L392.03 163.778L390.441 164.285L387.389 166.243L386.742 166.836L385.707 168.309L385.493 168.295L385.566 167.563L384.865 166.35L384.204 166.457L384.431 167.229H385.259L385.413 167.389L385.066 168.702L384.218 170.094L383.864 169.861L383.617 169.415L382.956 169.308L383.089 169.761L383.844 170.174L383.67 171.354L383.096 172.12L382.475 173.472L381.954 173.572L381.754 173.266L382.074 172.333L382.348 172.246L382.555 171.96L382.802 171.267L382.261 171.02L382.328 171.473L382.027 172.226L381.707 172.559L381.533 173.286L381.72 173.765L381.547 174.112L380.745 174.525Z" fill="#FF9900"/>
<path d="M270.328 325.25L270.221 324.364L269.273 323.984L268.786 321.786L269.053 320.486L267.624 320.1L267.117 320.213L266.382 322.059L265.941 322.625L265.233 322.272L265 321.752L265.461 319.554L266.055 319.114L266.148 318.847L265.073 318.001L264.012 317.915L262.957 318.041L262.623 317.788L260.346 318.141L258.756 318.221L258.082 318.081L257.681 317.821L257.461 316.462L258.316 315.05L258.483 314.35L258.316 314.057L257.915 313.857L257.301 312.545L257.341 311.952L257.007 311.499L256.56 311.306L255.752 310.546L254.757 308.541L254.997 308.174L255.05 307.002L254.182 305.989L253.929 304.763L254.042 304.223L254.303 303.837L254.289 302.011L253.695 300.839L251.298 298.953L250.543 297.921L248.56 298.494L245.014 298.407L244.574 298.047L243.472 297.954L243.191 298.18L242.043 298.134L241.562 297.254L241.142 296.915L238.798 296.382L237.629 295.822L237.108 295.156L235.386 295.162L234.671 295.522L233.79 295.435L232.027 294.709L230.338 294.403L229.349 293.876L228.568 293.683L228.081 293.93L227.854 294.329L227.046 294.743L224.855 294.549L222.178 294.623L219.62 294.19L217.45 295.715L218.011 294.996L218.499 293.97L219.34 293.21L224.388 290.185L225.69 288.94L226.531 287.321L227.687 286.195L227.954 285.388L228.915 284.702L229.102 283.889L228.869 283.33L230.204 281.824L231.012 280.265L231.059 279.639L230.852 278.353L231.005 278.093L231.646 277.747L233.382 275.321L233.489 273.369L233.903 272.25L234.578 272.05L235.065 271.624L236.394 269.838L237.209 269.159L237.522 269.005L238.397 268.979L239.399 268.459L239.586 268.192L239.853 266.554L240.667 265.801L242.103 265.061L243.385 264.815L244.34 263.689L245.342 263.282L245.842 263.375L246.998 264.408L248.7 264.461L251.565 265.101L252.68 264.861L253.762 265.008L255.097 264.615L256.553 265.561L257.668 266.087L257.581 266.7L257.802 267.646L258.61 269.039L259.03 269.059L259.391 268.845L259.838 268.219L260.112 267.466L260.286 267.34L260.653 267.373L260.893 267.633L261.06 268.272L261.067 270.125L261.868 270.478L262.142 270.178L261.962 268.486L262.289 267.693L262.589 267.373L268.051 266.927L268.726 266.094L269.727 267.067L270.475 267.353L272.332 266.893L272.625 266.234L272.492 265.927L272.699 265.521L274.288 265.448L275.396 265.967L275.964 265.541L276.839 265.348L279.016 267.58L279.149 268.272L278.769 268.945L278.575 270.524L278.962 270.931L280.224 271.737L280.491 272.77L280.451 273.143L279.436 274.495L279.316 275.788L279.844 276.281L280.051 276.687L280.298 278.16L281.166 279.359L281.72 280.685L281.7 281.251L282.775 281.218L283.296 281.011L283.483 280.771L284.151 280.738L286.621 281.617L286.775 281.864L286.741 282.71L286.274 284.162L285.032 285.975L285.206 287.933L285.079 290.232L284.725 291.271L285.206 292.337L286.394 293.164L287.603 293.717L287.943 294.862L287.135 295.329L288.484 297.534L289.239 297.701L290.581 297.541L290.701 297.894L293.118 297.228L293.492 297.507L294.367 297.294L294.868 296.641L294.901 296.082L294.741 295.922L294.854 294.389L295.649 294.17L295.709 294.403L295.475 294.729L295.482 295.049L297.045 295.102L298.64 294.936L299.836 294.489L300.657 293.663L301.946 292.984L303.421 292.837L304.249 292.351L305.097 292.71L305.471 293.49L306.293 294.549L307.475 294.809L309.578 294.456L310.713 294.463L311.214 295.555L310.112 296.988L309.111 297.461L307.261 297.701L306.927 297.601L305.358 298.274L304.63 299.04L303.902 301.372L303.936 301.645L305.024 302.798L305.344 302.971L305.304 303.104L304.176 303.384L303.468 302.837L302.48 303.577L302.193 304.01L302.373 304.157L301.866 304.583L299.715 305.616L298.213 306.082L298.026 306.375L298.053 307.015L298.387 308.048L298.173 308.327L297.238 308.501L296.771 308.074L295.876 307.881L293.793 307.548L293.218 307.648L292.337 307.874L291.182 308.421L290.848 308.76L290.04 310.193L289.165 310.573L288.831 310.493L289.219 310.18L288.898 309.367L288.117 308.8L287.563 309.62L287.736 310.12L287.536 310.526L282.448 313.351L281.813 313.897L281.606 314.67L279.423 316.669L277.253 317.968L275.971 318.321L272.966 320.46L271.41 321.766L270.963 321.819L270.669 322.232L271.27 322.519L271.711 322.558L272.332 322.319V322.825L271.918 323.698L271.036 324.264L270.328 325.25ZM299.916 309.92L298.887 309.487L298.113 309.607L297.786 309.353L297.852 308.834L298.487 308.401L299.215 307.168L299.695 307.335L300.136 307.768L300.223 309.707L299.916 309.92Z" fill="#CD0000"/>
<path d="M289.54 187.936L285.961 188.882L284.799 189.775L283.09 190.508H282.055L279.03 191.174L277.347 192.56L276.159 193.16L275.851 193L274.843 191.254L274.476 191.234L274.135 193.433L273.675 193.486L271.438 193.033L269.348 192.054L269.722 191.014L269.575 190.521L266.55 190.874L264.707 190.648L264.333 191.008L264.133 191.674L263.632 192.174L262.871 192.14L262.463 190.075L261.722 187.603L261.028 186.351L260.26 185.478L259.472 186.124L258.49 187.716L257.402 191.674L256.981 191.827L254.264 190.874L252.2 189.735L249.576 189.469L248.107 188.782L246.504 188.516L246.852 186.957L247.666 185.704L247.686 184.565L247.312 184.765L246.104 186.157L245.663 186.977L245.53 188.229L245.302 188.529L244.768 188.516L244.127 188.176L243.473 185.951L243.967 184.112L243.673 182.08L243.326 181.693L243.319 180.647L243.633 178.442L242.899 176.943L242.932 176.61L243.48 176.017L243.586 175.437L242.658 174.545L242.618 173.972L243.874 169.981L243.9 168.015L244.261 166.037L245.556 162.512L245.803 162.332L246.09 161.766L246.384 159.674L247.119 158.841L247.493 157.582L247.927 156.902L249.008 154.444L249.763 151.479L250.531 150.426L251.325 149.693L252.133 148.574L252.821 147.295L253.736 146.682L254.437 146.575L254.925 146.009L255.552 144.983L255.672 144.324L256.808 142.165L257.535 141.632L258.711 138.201L259.151 135.509L259.051 135.309L258.557 135.096L257.442 133.937L257.041 133.304L256.934 132.717L257.028 132.338L257.969 131.212L258.831 129.813L258.791 128.034L258.504 126.581L258.631 126.348L260.28 125.162L262.557 124.403L264.226 123.596L264.386 123.263L264.286 122.257L264.86 121.411L265.869 120.518L266.73 120.418L266.857 119.526L266.663 118.726L266.83 118.42L267.805 118.113L268.233 117.793L268.854 115.961L268.172 115.068L268.112 114.136L268.306 113.949L268.954 113.896L269.435 113.649L269.682 113.21L269.702 112.783L268.86 112.004L268.279 111.91L268.019 111.704L267.338 110.598L266.476 110.518L265.228 110.685L263.699 110.145L264.053 109.718L265.802 108.486L267.111 108.133L267.692 108.166L269.548 109.179L270.483 109.232L271.117 108.886L272.279 109.079L272.673 109.539L272.726 110.225L272.913 110.438L273.728 110.458L275.998 111.411L276.559 112.097L276.873 114.429L277.3 115.428L277.16 117.907L277.314 118.626L277.761 119.379L277.755 119.672L276.573 123.77L276.366 125.349L276.553 126.015L276.386 127.074L275.217 128.433L274.042 128.88L273.922 129.353L275.217 130.232L275.498 130.052L276.412 130.212L276.579 130.446L276.653 131.032L276.239 131.825L276.806 132.784L277.394 132.737L279.397 135.509L280.005 136.075L281.527 138.087L282.956 137.195L285.807 136.568L287.009 137.381L287.063 138.547L286.635 140.712L286.896 141.612L284.632 141.845L283.737 142.205L283.357 142.571L282.903 143.524L282.415 145.31L282.662 146.176L280.906 147.875L280.733 148.341L280.866 148.621L282.255 148.814L282.883 149.274L283.377 150.333L283.417 151.439L283.831 152.132L286.422 153.431L286.482 153.784L285.387 154.99L285.474 156.089L286.903 157.169L287.564 159.081L288.458 160.413L288.932 160.533L290.121 160.393L290.789 160.593L291.336 160.886L291.744 161.433L292.598 161.873L294.561 162.012L294.101 162.445L293.954 163.098L293.58 163.412L291.029 164.757L288.886 166.503L288.759 166.749L289.62 167.949L289.38 168.209L288.705 168.388L288.104 168.795L287.089 171.12L286.415 171.6L286.081 172.373L286.235 172.986L287.477 174.285L289.874 174.731L291.123 175.391L291.156 175.897L290.782 176.197L289.42 176.737L289.133 177.376L289.193 177.709L289.427 177.929L290.114 177.809L290.729 178.002L291.116 178.342L291.31 178.769L290.669 179.242L289.901 179.521L288.599 180.634L288.472 181.2L288.438 183.146L288.672 183.979L289.3 184.418L290.001 184.578L290.275 184.745L290.388 185.025L290.421 185.731L289.513 187.317L289.54 187.936Z" fill="#8DC41E" fill-opacity="0.67"/>
</g>
<defs>
<clipPath id="clip0_177_83">
<rect width="409" height="425.762" fill="white"/>
</clipPath>
</defs>
</svg>
