<svg width="26" height="26" viewBox="0 0 26 26" fill="none" xmlns="http://www.w3.org/2000/svg">
<path d="M24.4451 4.00745C23.4569 4.70444 22.3629 5.23754 21.205 5.58619C20.5836 4.87164 19.7577 4.36518 18.839 4.13532C17.9203 3.90546 16.9532 3.96328 16.0685 4.30096C15.1838 4.63865 14.4241 5.2399 13.8922 6.02341C13.3603 6.80692 13.0819 7.73487 13.0946 8.68177V9.71363C11.2812 9.76065 9.48441 9.35848 7.86411 8.54293C6.24382 7.72738 4.85037 6.52378 3.80786 5.03931C3.80786 5.03931 -0.31958 14.326 8.96716 18.4535C6.84207 19.896 4.31054 20.6193 1.74414 20.5172C11.0309 25.6765 22.3813 20.5172 22.3813 8.65082C22.3804 8.3634 22.3528 8.07668 22.2988 7.79437C23.3519 6.7558 24.0951 5.44453 24.4451 4.00745V4.00745Z" stroke="#006838" stroke-width="1.10065" stroke-linecap="round" stroke-linejoin="round"/>
</svg>